<?xml version="1.0" encoding="UTF-8" standalone="no"?>
<!-- Created with Inkscape (http://www.inkscape.org/) -->

<svg
   width="200mm"
   height="200mm"
   viewBox="0 0 200 200"
   version="1.1"
   id="svg1"
   xml:space="preserve"
   sodipodi:docname="pqc-libraries.svg"
   inkscape:version="1.3 (0e150ed, 2023-07-21)"
   xmlns:inkscape="http://www.inkscape.org/namespaces/inkscape"
   xmlns:sodipodi="http://sodipodi.sourceforge.net/DTD/sodipodi-0.dtd"
   xmlns:xlink="http://www.w3.org/1999/xlink"
   xmlns="http://www.w3.org/2000/svg"
   xmlns:svg="http://www.w3.org/2000/svg"><sodipodi:namedview
     id="namedview1"
     pagecolor="#ffffff"
     bordercolor="#000000"
     borderopacity="0.25"
     inkscape:showpageshadow="2"
     inkscape:pageopacity="0.0"
     inkscape:pagecheckerboard="0"
     inkscape:deskcolor="#d1d1d1"
     inkscape:document-units="mm"
     inkscape:zoom="1.8445642"
     inkscape:cx="325.28009"
     inkscape:cy="293.29422"
     inkscape:window-width="1472"
     inkscape:window-height="821"
     inkscape:window-x="0"
     inkscape:window-y="38"
     inkscape:window-maximized="1"
     inkscape:current-layer="layer1" /><defs
     id="defs1"><inkscape:path-effect
       effect="roughen"
       id="path-effect2"
       is_visible="true"
       lpeversion="1.2"
       global_randomize="1;1"
       displace_x="10;1"
       displace_y="10;1"
       method="size"
       max_segment_size="2.06367"
       segments="2"
       handles="along"
       shift_nodes="true"
       fixed_displacement="false"
       spray_tool_friendly="false" /><inkscape:path-effect
       effect="knot"
       id="path-effect1"
       is_visible="true"
       lpeversion="1"
       switcher_size="15"
       interruption_width="3"
       prop_to_stroke_width="false"
       add_stroke_width="inkscape_1.0_and_up"
       both="false"
       inverse_width="true"
       add_other_stroke_width="inkscape_1.0_and_up"
       crossing_points_vector="" /><linearGradient
       id="linearGradient16"><stop
         style="stop-color:#ffffff;stop-opacity:1;"
         offset="0.84144658"
         id="stop15" /><stop
         style="stop-color:#bafaff;stop-opacity:1;"
         offset="1"
         id="stop16" /></linearGradient><linearGradient
       id="linearGradient2-1"><stop
         style="stop-color:#0000ff;stop-opacity:1;"
         offset="0.85813636"
         id="stop7" /><stop
         style="stop-color:#00fff3;stop-opacity:1;"
         offset="0.85813636"
         id="stop14" /></linearGradient><linearGradient
       id="linearGradient2"><stop
         style="stop-color:#0000ff;stop-opacity:1;"
         offset="0.3157163"
         id="stop5" /><stop
         style="stop-color:#0000ff;stop-opacity:0;"
         offset="0.42976359"
         id="stop6" /></linearGradient><linearGradient
       id="linearGradient2-2"><stop
         style="stop-color:#0000ff;stop-opacity:1;"
         offset="0.3157163"
         id="stop3" /><stop
         style="stop-color:#0000ff;stop-opacity:0;"
         offset="0.42976359"
         id="stop4" /></linearGradient><linearGradient
       id="swatch2"
       inkscape:swatch="solid"><stop
         style="stop-color:#0000ff;stop-opacity:1;"
         offset="0"
         id="stop2" /></linearGradient><radialGradient
       inkscape:collect="always"
       xlink:href="#linearGradient2-1"
       id="radialGradient14"
       cx="99.902229"
       cy="99.902229"
       fx="99.902229"
       fy="99.902229"
       r="54.642651"
       gradientUnits="userSpaceOnUse"
       spreadMethod="pad"
       gradientTransform="matrix(0.34767976,0,0,0.34767976,65.168246,65.168246)" /><radialGradient
       inkscape:collect="always"
       xlink:href="#linearGradient16"
       id="radialGradient15"
       gradientUnits="userSpaceOnUse"
       gradientTransform="matrix(0.53313102,0,0,0.53002898,46.641248,46.951156)"
       cx="99.902229"
       cy="99.902229"
       fx="99.902229"
       fy="99.902229"
       r="54.642651"
       spreadMethod="pad" /></defs><g
     inkscape:label="Layer 1"
     inkscape:groupmode="layer"
     id="layer1"><path
       style="color:#000000;fill:#0000ff;stroke-miterlimit:4.4;-inkscape-stroke:none"
       d="m 99.902344,43.556641 c -10.276038,0 -19.532424,6.394799 -26.179688,16.599609 -6.647263,10.20481 -10.732422,24.24693 -10.732422,39.746094 0,5.959886 0.604659,11.704226 1.726563,17.097656 l 1.175781,-0.24414 c -1.10482,-5.3113 -1.701172,-10.97485 -1.701172,-16.853516 0,-15.287944 4.042207,-29.118936 10.53711,-39.089844 6.494903,-9.970908 15.395596,-16.054688 25.173828,-16.054688 8.429376,10e-7 16.196966,4.515115 22.349606,12.154297 l 0.93555,-0.751953 C 116.86958,48.31576 108.76085,43.556642 99.902344,43.556641 Z m 21.330076,13.800781 c -12.16125,-0.654295 -26.362482,2.828542 -39.785154,10.578125 -5.16141,2.979941 -9.833471,6.376615 -13.94336,10.044922 L 68.302734,78.875 c 4.047308,-3.61245 8.653071,-6.96106 13.744141,-9.900391 13.239749,-7.643972 27.238585,-11.057267 39.121095,-10.417968 11.88251,0.639298 21.60307,5.305238 26.49219,13.773437 4.21468,7.300051 4.18785,16.28566 0.64843,25.433594 l 1.11914,0.43164 c 3.6345,-9.393679 3.70074,-18.79315 -0.72851,-26.464843 -5.13802,-8.899312 -15.30554,-13.718752 -27.4668,-14.373047 z m -43.464842,0.05078 0.08203,1.197266 c 5.94295,-0.412482 12.441879,0.202369 19.125,1.871093 L 97.265625,59.3125 C 90.47245,57.616296 83.852883,56.985841 77.767578,57.408203 Z m -4.105469,0.457031 c -9.952414,1.549278 -18.127384,6.193538 -22.55664,13.865235 -5.138018,8.89931 -4.226884,20.1116 1.287109,30.970701 5.513993,10.85911 15.632018,21.41839 29.054688,29.16797 5.161414,2.97994 10.438125,5.32762 15.669921,7.05273 l 0.375,-1.14062 C 92.340057,136.08241 87.137951,133.76941 82.046875,130.83008 68.807128,123.18611 58.850499,112.76841 53.462891,102.1582 48.075283,91.547999 47.255416,80.798275 52.144531,72.330078 56.359219,65.030024 64.155603,60.559529 73.847656,59.050781 Z m 51.974611,1.621094 -0.99609,0.669922 c 3.32869,4.940508 6.045,10.875926 7.9414,17.498047 l 1.1543,-0.332031 c -1.92763,-6.73117 -4.69119,-12.777088 -8.09961,-17.835938 z m -22.94922,1.396484 -0.375,1.138672 c 5.15213,1.698847 10.35424,4.013791 15.44531,6.953125 13.23975,7.643973 23.19638,18.06167 28.58399,28.671875 5.38761,10.610206 6.20747,21.359926 1.31836,29.828126 -4.2147,7.30005 -12.01108,11.77054 -21.70313,13.2793 l 0.18555,1.18554 c 9.95241,-1.54928 18.12738,-6.19354 22.55664,-13.86523 5.13802,-8.89931 4.22688,-20.1116 -1.28711,-30.970704 C 141.89812,86.244411 131.78009,75.685129 118.35742,67.935547 113.19601,64.955602 107.9193,62.607928 102.6875,60.882812 Z M 63.431641,81.890625 C 58.56609,86.92559 54.710081,92.343003 52.033203,97.824219 l 1.078125,0.527343 c 2.614257,-5.352991 6.396868,-10.673557 11.183594,-15.626953 z m 71.654299,0.914062 -1.17383,0.244141 c 1.10482,5.3113 1.70117,10.974848 1.70117,16.853516 0,15.287936 -4.04221,29.118936 -10.53711,39.089846 -6.4949,9.97091 -15.39559,16.05468 -25.173826,16.05468 -8.429373,0 -16.19697,-4.51511 -22.34961,-12.15429 l -0.935547,0.75195 c 6.317921,7.8444 14.426647,12.60352 23.285157,12.60352 10.276036,0 19.532426,-6.39676 26.179686,-16.60157 6.64726,-10.20481 10.73242,-24.24498 10.73242,-39.744136 0,-5.959889 -0.60661,-11.704231 -1.72851,-17.097657 z m 11.60742,18.648443 c -2.61426,5.35299 -6.39687,10.67355 -11.18359,15.62695 l 0.86328,0.83398 c 4.86554,-5.03497 8.72156,-10.45237 11.39843,-15.93359 z m -96.316407,0.15429 c -3.634493,9.39369 -3.700743,18.7951 0.728516,26.4668 5.138019,8.89931 15.30554,13.71875 27.466797,14.37305 12.161256,0.65429 26.362484,-2.82855 39.785154,-10.57813 5.16142,-2.97994 9.83347,-6.37662 13.94336,-10.04492 l -0.79883,-0.89453 c -4.04731,3.61245 -8.65306,6.96106 -13.74414,9.90039 -13.23974,7.64397 -27.23858,11.05726 -39.121091,10.41797 -11.882511,-0.6393 -21.603071,-5.30525 -26.492188,-13.77344 -4.21469,-7.30005 -4.187849,-16.28566 -0.648437,-25.43359 z m 16.845703,20.54297 -1.154297,0.33008 c 1.927633,6.73117 4.691179,12.77904 8.09961,17.83789 l 0.996093,-0.66992 c -3.328696,-4.94051 -6.045002,-10.87593 -7.941406,-17.49805 z m 35.607424,17.17773 -0.29102,1.16407 c 6.79318,1.6962 13.41274,2.32665 19.49805,1.90429 l -0.082,-1.19726 c -5.94296,0.41248 -12.44187,-0.20238 -19.125,-1.8711 z"
       id="ellipse17" /><ellipse
       style="fill:#0000ff;fill-opacity:1;stroke:#0000ff;stroke-width:1.2;stroke-miterlimit:4.4;stroke-dasharray:none;stroke-opacity:1"
       id="ellipse16"
       cx="99.902229"
       cy="99.902229"
       rx="29.797808"
       ry="29.624426"
       inkscape:label="outer" /><ellipse
       style="fill:url(#radialGradient15);stroke:#000000;stroke-width:0;stroke-miterlimit:4.4"
       id="circle15"
       cx="99.902229"
       cy="99.902229"
       rx="29.131691"
       ry="28.962185"
       inkscape:label="mid" /><circle
       style="fill:url(#radialGradient14);stroke:#000000;stroke-width:0;stroke-miterlimit:4.4"
       id="path1"
       cx="99.902229"
       cy="99.902229"
       r="18.998142"
       inkscape:label="center" /></g></svg>
