<?xml version="1.0" encoding="UTF-8" standalone="no"?>
<!-- Created with Inkscape (http://www.inkscape.org/) -->

<svg
   width="800mm"
   height="380mm"
   viewBox="0 0 800 380"
   version="1.1"
   id="svg1"
   xml:space="preserve"
   sodipodi:docname="pqc-libraries.svg"
   inkscape:version="1.3 (0e150ed, 2023-07-21)"
   inkscape:export-filename="pqc-libraries.png"
   inkscape:export-xdpi="96"
   inkscape:export-ydpi="96"
   xmlns:inkscape="http://www.inkscape.org/namespaces/inkscape"
   xmlns:sodipodi="http://sodipodi.sourceforge.net/DTD/sodipodi-0.dtd"
   xmlns:xlink="http://www.w3.org/1999/xlink"
   xmlns="http://www.w3.org/2000/svg"
   xmlns:svg="http://www.w3.org/2000/svg"><sodipodi:namedview
     id="namedview1"
     pagecolor="#ffffff"
     bordercolor="#000000"
     borderopacity="0.25"
     inkscape:showpageshadow="2"
     inkscape:pageopacity="0.0"
     inkscape:pagecheckerboard="0"
     inkscape:deskcolor="#d1d1d1"
     inkscape:document-units="mm"
     inkscape:zoom="0.21321186"
     inkscape:cx="1339.0437"
     inkscape:cy="1407.0512"
     inkscape:window-width="1472"
     inkscape:window-height="821"
     inkscape:window-x="0"
     inkscape:window-y="38"
     inkscape:window-maximized="0"
     inkscape:current-layer="layer1"
     showgrid="true"
     showguides="false"><inkscape:grid
       id="grid4"
       units="mm"
       originx="0"
       originy="0"
       spacingx="0.99999999"
       spacingy="0.99999999"
       empcolor="#0099e5"
       empopacity="0.30196078"
       color="#0099e5"
       opacity="0.14901961"
       empspacing="5"
       dotted="false"
       gridanglex="30"
       gridanglez="30"
       visible="true" /></sodipodi:namedview><defs
     id="defs1"><marker
       style="overflow:visible"
       id="DartArrow"
       refX="0"
       refY="0"
       orient="auto-start-reverse"
       inkscape:stockid="Dart arrow"
       markerWidth="1"
       markerHeight="1"
       viewBox="0 0 1 1"
       inkscape:isstock="true"
       inkscape:collect="always"
       preserveAspectRatio="xMidYMid"><path
         style="fill:context-stroke;fill-rule:evenodd;stroke:none"
         d="M 0,0 5,-5 -12.5,0 5,5 Z"
         transform="scale(-0.5)"
         id="path40" /></marker><inkscape:path-effect
       effect="fillet_chamfer"
       id="path-effect37"
       is_visible="true"
       lpeversion="1"
       nodesatellites_param="F,0,0,1,0,0,0,1 @ F,0,0,1,0,45.000003,0,1 @ F,0,0,1,0,45.000003,0,1 @ F,0,0,1,0,0,0,1 @ F,0,0,1,0,0,0,1 @ F,0,0,1,0,29.66764,0,1 @ F,0,0,1,0,30.000002,0,1 @ F,0,0,1,0,0,0,1"
       radius="0"
       unit="px"
       method="auto"
       mode="F"
       chamfer_steps="1"
       flexible="false"
       use_knot_distance="true"
       apply_no_radius="true"
       apply_with_radius="true"
       only_selected="false"
       hide_knots="false" /><linearGradient
       id="linearGradient4"
       inkscape:collect="always"><stop
         style="stop-color:#feff00;stop-opacity:1;"
         offset="0"
         id="stop8" /><stop
         style="stop-color:#00ffee;stop-opacity:1;"
         offset="1"
         id="stop9" /></linearGradient><inkscape:path-effect
       effect="roughen"
       id="path-effect2"
       is_visible="true"
       lpeversion="1.2"
       global_randomize="1;1"
       displace_x="10;1"
       displace_y="10;1"
       method="size"
       max_segment_size="2.06367"
       segments="2"
       handles="along"
       shift_nodes="true"
       fixed_displacement="false"
       spray_tool_friendly="false" /><inkscape:path-effect
       effect="knot"
       id="path-effect1"
       is_visible="true"
       lpeversion="1"
       switcher_size="15"
       interruption_width="3.3"
       prop_to_stroke_width="false"
       add_stroke_width="inkscape_1.0_and_up"
       both="false"
       inverse_width="true"
       add_other_stroke_width="inkscape_1.0_and_up"
       crossing_points_vector="123.98785 | 141.61978 | 0 | 1 | 1 | 2 | 0.53918773 | 1.4608124 | 1 | 133.8989 | 119.53022 | 0 | 2 | 0 | 3 | 0.22438576 | 1.7756143 | 1 | 65.905558 | 119.53022 | 0 | 1 | 3 | 4 | 1.7756142 | 2.2243857 | 1 | 75.816601 | 141.61978 | 0 | 2 | 2 | 5 | 1.4608123 | 2.5391876 | 1 | 75.816604 | 58.184672 | 0 | 1 | 5 | 6 | 2.5391878 | 3.4608125 | 1 | 65.905562 | 80.274222 | 0 | 2 | 4 | 7 | 2.224386 | 3.7756144 | 1 | 133.8989 | 80.274233 | 0 | 1 | 7 | 0 | 3.7756142 | 0.22438567 | 1 | 123.98785 | 58.184669 | 0 | 2 | 6 | 1 | 3.4608121 | 0.53918748 | 1 | 148.0735 | 99.902235 | 1 | 2 | 1 | 2 | 0.53918768 | 1.4608124 | 1 | 99.902232 | 139.1582 | 1 | 2 | 3 | 4 | 1.7756142 | 2.2243857 | 1 | 51.73095 | 99.90221 | 1 | 2 | 5 | 6 | 2.5391878 | 3.4608125 | 1 | 99.902215 | 60.646247 | 1 | 2 | 7 | 0 | 3.7756141 | 0.22438564 | 1" /><linearGradient
       id="linearGradient16"><stop
         style="stop-color:#ffffff;stop-opacity:1;"
         offset="0.84144658"
         id="stop15" /><stop
         style="stop-color:#bafaff;stop-opacity:1;"
         offset="1"
         id="stop16" /></linearGradient><linearGradient
       id="linearGradient2-1"><stop
         style="stop-color:#0000ff;stop-opacity:1;"
         offset="0.85813636"
         id="stop7" /><stop
         style="stop-color:#00fff3;stop-opacity:1;"
         offset="0.85813636"
         id="stop14" /></linearGradient><linearGradient
       id="linearGradient2"><stop
         style="stop-color:#0000ff;stop-opacity:1;"
         offset="0.3157163"
         id="stop5" /><stop
         style="stop-color:#0000ff;stop-opacity:0;"
         offset="0.42976359"
         id="stop6" /></linearGradient><linearGradient
       id="linearGradient2-2"><stop
         style="stop-color:#0000ff;stop-opacity:1;"
         offset="0.3157163"
         id="stop3" /><stop
         style="stop-color:#0000ff;stop-opacity:0;"
         offset="0.42976359"
         id="stop4" /></linearGradient><linearGradient
       id="swatch2"
       inkscape:swatch="solid"><stop
         style="stop-color:#0000ff;stop-opacity:1;"
         offset="0"
         id="stop2" /></linearGradient><radialGradient
       inkscape:collect="always"
       xlink:href="#linearGradient2-1"
       id="radialGradient14"
       cx="99.902229"
       cy="99.902229"
       fx="99.902229"
       fy="99.902229"
       r="54.642651"
       gradientUnits="userSpaceOnUse"
       spreadMethod="pad"
       gradientTransform="matrix(0.34767976,0,0,0.34767976,215.26602,115.26604)" /><radialGradient
       inkscape:collect="always"
       xlink:href="#linearGradient16"
       id="radialGradient15"
       gradientUnits="userSpaceOnUse"
       gradientTransform="matrix(0.53313102,0,0,0.53002898,196.73902,97.048938)"
       cx="99.902229"
       cy="99.902229"
       fx="99.902229"
       fy="99.902229"
       r="54.642651"
       spreadMethod="pad" /><linearGradient
       inkscape:collect="always"
       xlink:href="#linearGradient4"
       id="linearGradient9"
       x1="262.8089"
       y1="150.15764"
       x2="332.80539"
       y2="150.15764"
       gradientUnits="userSpaceOnUse"
       gradientTransform="matrix(0.96595983,-0.25882816,0.26062392,0.97266171,-28.508099,68.087316)" /><linearGradient
       inkscape:collect="always"
       xlink:href="#linearGradient4"
       id="linearGradient12"
       gradientUnits="userSpaceOnUse"
       gradientTransform="matrix(1.0000352,0,0,1.0069735,2.1823969,-1.2047778)"
       x1="262.8089"
       y1="150.15764"
       x2="332.80539"
       y2="150.15764" /><linearGradient
       inkscape:collect="always"
       xlink:href="#linearGradient4"
       id="linearGradient13"
       gradientUnits="userSpaceOnUse"
       gradientTransform="matrix(0.96595983,0.25882816,-0.26062392,0.97266171,49.761254,-60.192516)"
       x1="262.8089"
       y1="150.15764"
       x2="332.80539"
       y2="150.15764" /><linearGradient
       inkscape:collect="always"
       xlink:href="#linearGradient4"
       id="linearGradient14"
       gradientUnits="userSpaceOnUse"
       gradientTransform="matrix(0.86605589,0.5000176,-0.50348675,0.87206463,110.98605,-104.85598)"
       x1="262.8089"
       y1="150.15764"
       x2="332.80539"
       y2="150.15764" /><linearGradient
       inkscape:collect="always"
       xlink:href="#linearGradient4"
       id="linearGradient15"
       gradientUnits="userSpaceOnUse"
       gradientTransform="matrix(0.70713167,0.70713167,-0.71203779,0.71203779,181.68442,-132.15143)"
       x1="262.8089"
       y1="150.15764"
       x2="332.80539"
       y2="150.15764" /><linearGradient
       inkscape:collect="always"
       xlink:href="#linearGradient4"
       id="linearGradient17"
       gradientUnits="userSpaceOnUse"
       gradientTransform="matrix(0.5000176,0.86605589,-0.87206463,0.50348675,257.03838,-140.21873)"
       x1="262.8089"
       y1="150.15764"
       x2="332.80539"
       y2="150.15764" /><linearGradient
       inkscape:collect="always"
       xlink:href="#linearGradient4"
       id="linearGradient18"
       gradientUnits="userSpaceOnUse"
       gradientTransform="matrix(0.25882816,0.96595983,-0.97266171,0.26062392,331.91269,-128.5081)"
       x1="262.8089"
       y1="150.15764"
       x2="332.80539"
       y2="150.15764" /><linearGradient
       inkscape:collect="always"
       xlink:href="#linearGradient4"
       id="linearGradient19"
       gradientUnits="userSpaceOnUse"
       gradientTransform="matrix(0,1.0000352,-1.0069735,0,401.20478,-97.817604)"
       x1="262.8089"
       y1="150.15764"
       x2="332.80539"
       y2="150.15764" /><linearGradient
       inkscape:collect="always"
       xlink:href="#linearGradient4"
       id="linearGradient20"
       gradientUnits="userSpaceOnUse"
       gradientTransform="matrix(-0.25882816,0.96595983,-0.97266171,-0.26062392,460.19252,-50.238747)"
       x1="262.8089"
       y1="150.15764"
       x2="332.80539"
       y2="150.15764" /><linearGradient
       inkscape:collect="always"
       xlink:href="#linearGradient4"
       id="linearGradient21"
       gradientUnits="userSpaceOnUse"
       gradientTransform="matrix(-0.5000176,0.86605589,-0.87206463,-0.50348675,504.85598,10.986049)"
       x1="262.8089"
       y1="150.15764"
       x2="332.80539"
       y2="150.15764" /><linearGradient
       inkscape:collect="always"
       xlink:href="#linearGradient4"
       id="linearGradient22"
       gradientUnits="userSpaceOnUse"
       gradientTransform="matrix(-0.70713167,0.70713167,-0.71203779,-0.71203779,532.15144,81.684417)"
       x1="262.8089"
       y1="150.15764"
       x2="332.80539"
       y2="150.15764" /><linearGradient
       inkscape:collect="always"
       xlink:href="#linearGradient4"
       id="linearGradient23"
       gradientUnits="userSpaceOnUse"
       gradientTransform="matrix(-0.86605589,0.5000176,-0.50348675,-0.87206463,540.21873,157.03838)"
       x1="262.8089"
       y1="150.15764"
       x2="332.80539"
       y2="150.15764" /><linearGradient
       inkscape:collect="always"
       xlink:href="#linearGradient4"
       id="linearGradient24"
       gradientUnits="userSpaceOnUse"
       gradientTransform="matrix(-0.96595983,0.25882816,-0.26062392,-0.97266171,528.5081,231.91269)"
       x1="262.8089"
       y1="150.15764"
       x2="332.80539"
       y2="150.15764" /><linearGradient
       inkscape:collect="always"
       xlink:href="#linearGradient4"
       id="linearGradient25"
       gradientUnits="userSpaceOnUse"
       gradientTransform="matrix(-1.0000352,0,0,-1.0069735,497.81761,301.20478)"
       x1="262.8089"
       y1="150.15764"
       x2="332.80539"
       y2="150.15764" /><linearGradient
       inkscape:collect="always"
       xlink:href="#linearGradient4"
       id="linearGradient26"
       gradientUnits="userSpaceOnUse"
       gradientTransform="matrix(-0.96595983,-0.25882816,0.26062392,-0.97266171,450.23875,360.19252)"
       x1="262.8089"
       y1="150.15764"
       x2="332.80539"
       y2="150.15764" /><linearGradient
       inkscape:collect="always"
       xlink:href="#linearGradient4"
       id="linearGradient27"
       gradientUnits="userSpaceOnUse"
       gradientTransform="matrix(-0.86605589,-0.5000176,0.50348675,-0.87206463,389.01395,404.85598)"
       x1="262.8089"
       y1="150.15764"
       x2="332.80539"
       y2="150.15764" /><linearGradient
       inkscape:collect="always"
       xlink:href="#linearGradient4"
       id="linearGradient28"
       gradientUnits="userSpaceOnUse"
       gradientTransform="matrix(-0.70713167,-0.70713167,0.71203779,-0.71203779,318.31559,432.15143)"
       x1="262.8089"
       y1="150.15764"
       x2="332.80539"
       y2="150.15764" /><linearGradient
       inkscape:collect="always"
       xlink:href="#linearGradient4"
       id="linearGradient29"
       gradientUnits="userSpaceOnUse"
       gradientTransform="matrix(-0.5000176,-0.86605589,0.87206463,-0.50348675,242.96162,440.21873)"
       x1="262.8089"
       y1="150.15764"
       x2="332.80539"
       y2="150.15764" /><linearGradient
       inkscape:collect="always"
       xlink:href="#linearGradient4"
       id="linearGradient30"
       gradientUnits="userSpaceOnUse"
       gradientTransform="matrix(-0.25882816,-0.96595983,0.97266171,-0.26062392,168.08732,428.5081)"
       x1="262.8089"
       y1="150.15764"
       x2="332.80539"
       y2="150.15764" /><linearGradient
       inkscape:collect="always"
       xlink:href="#linearGradient4"
       id="linearGradient31"
       gradientUnits="userSpaceOnUse"
       gradientTransform="matrix(0,-1.0000352,1.0069735,0,98.795223,397.81761)"
       x1="262.8089"
       y1="150.15764"
       x2="332.80539"
       y2="150.15764" /><linearGradient
       inkscape:collect="always"
       xlink:href="#linearGradient4"
       id="linearGradient32"
       gradientUnits="userSpaceOnUse"
       gradientTransform="matrix(0.25882816,-0.96595983,0.97266171,0.26062392,39.807485,350.23875)"
       x1="262.8089"
       y1="150.15764"
       x2="332.80539"
       y2="150.15764" /><linearGradient
       inkscape:collect="always"
       xlink:href="#linearGradient4"
       id="linearGradient33"
       gradientUnits="userSpaceOnUse"
       gradientTransform="matrix(0.5000176,-0.86605589,0.87206463,0.50348675,-4.8559803,289.01395)"
       x1="262.8089"
       y1="150.15764"
       x2="332.80539"
       y2="150.15764" /><linearGradient
       inkscape:collect="always"
       xlink:href="#linearGradient4"
       id="linearGradient34"
       gradientUnits="userSpaceOnUse"
       gradientTransform="matrix(0.70713167,-0.70713167,0.71203779,0.71203779,-32.151432,218.31559)"
       x1="262.8089"
       y1="150.15764"
       x2="332.80539"
       y2="150.15764" /><linearGradient
       inkscape:collect="always"
       xlink:href="#linearGradient4"
       id="linearGradient35"
       gradientUnits="userSpaceOnUse"
       gradientTransform="matrix(0.86605589,-0.5000176,0.50348675,0.87206463,-40.218729,142.96162)"
       x1="262.8089"
       y1="150.15764"
       x2="332.80539"
       y2="150.15764" /><linearGradient
       inkscape:collect="always"
       xlink:href="#linearGradient4"
       id="linearGradient36"
       gradientUnits="userSpaceOnUse"
       gradientTransform="matrix(0.96595983,-0.25882816,0.26062392,0.97266171,-28.508099,68.087316)"
       x1="262.8089"
       y1="150.15764"
       x2="332.80539"
       y2="150.15764" /></defs><g
     inkscape:label="Layer 1"
     inkscape:groupmode="layer"
     id="layer1"
     transform="translate(150,52.754069)"><g
       id="g37"
       inkscape:label="lock"
       transform="translate(-206.33012,2.9921116)"><path
         id="rect37"
         style="fill:#01ff01;fill-opacity:1;stroke:#079100;stroke-width:10;stroke-linecap:square;stroke-linejoin:miter;stroke-miterlimit:4.4;stroke-dasharray:none;stroke-opacity:1;paint-order:stroke markers fill"
         inkscape:label="lock"
         d="m 224.99985,14.999748 a 45.000003,45.000003 0 0 0 -44.99984,45.000354 v 19.999813 h -16.98707 c -4.43917,0 -8.01295,3.573783 -8.01295,8.012947 V 211.98721 c 0,4.43916 3.57378,8.01294 8.01295,8.01294 h 173.97387 c 4.43917,0 8.01295,-3.57378 8.01295,-8.01294 V 88.012862 c 0,-4.439164 -3.57378,-8.012947 -8.01295,-8.012947 H 320.00025 V 60.000102 A 45.000003,45.000003 0 0 0 274.9999,14.999748 Z m 0,15.000118 h 50.33233 a 29.66764,29.66764 0 0 1 29.66795,29.667956 v 20.332093 h -110 V 60.000102 a 30.000002,30.000002 0 0 1 29.99972,-30.000236 z" /><circle
         style="display:inline;fill:#cbcbcb;fill-opacity:1;stroke:#000000;stroke-width:20;stroke-linecap:square;stroke-linejoin:miter;stroke-miterlimit:4.4;stroke-dasharray:none;stroke-opacity:1;paint-order:stroke markers fill"
         id="path36"
         cx="250"
         cy="150"
         r="75"
         inkscape:label="key" /><ellipse
         style="fill:#0000ff;fill-opacity:1;stroke:#0000ff;stroke-width:1.2;stroke-miterlimit:4.4;stroke-dasharray:none;stroke-opacity:1"
         id="ellipse16"
         cx="250"
         cy="150"
         rx="29.797808"
         ry="29.624426"
         inkscape:label="outer"
         inkscape:transform-center-x="0.88555388"
         inkscape:transform-center-y="-16.319567" /><ellipse
         style="fill:url(#radialGradient15);stroke:#000000;stroke-width:0;stroke-miterlimit:4.4"
         id="circle15"
         cx="250"
         cy="150"
         rx="29.131691"
         ry="28.962185"
         inkscape:label="mid"
         inkscape:transform-center-x="0.88555388"
         inkscape:transform-center-y="-16.319567" /><g
         id="g36"
         inkscape:label="rays"
         transform="matrix(0.7628884,0,0,0.7628884,59.277899,35.56674)"><path
           style="fill:none;stroke:url(#linearGradient12);stroke-width:0.311739;stroke-linecap:square;stroke-linejoin:miter;stroke-miterlimit:4.4;stroke-dasharray:none;stroke-opacity:1;paint-order:stroke markers fill"
           d="m 265.15587,150 c 0.38716,0 0.38716,1.96103 1.93578,1.96103 1.54864,0 1.59024,-3.92207 3.87159,-3.92207 2.28134,0 2.61346,5.8831 5.80736,5.8831 3.19386,0 3.63671,-7.84414 7.74313,-7.84414 4.10642,0 4.65996,9.80518 9.67892,9.80518 5.01896,0 5.68322,-11.7662 11.61471,-11.7662 5.93149,0 7.74314,13.72723 13.5505,13.72723 5.80736,0 9.67891,-15.68826 15.48627,-15.68826"
           id="path12"
           sodipodi:nodetypes="czzzzzzzc"
           inkscape:label="ray0"
           inkscape:transform-center-x="-49.999998"
           inkscape:transform-center-y="-1.1444091e-06" /><path
           style="fill:none;stroke:url(#linearGradient13);stroke-width:0.311739;stroke-linecap:square;stroke-linejoin:miter;stroke-miterlimit:4.4;stroke-dasharray:none;stroke-opacity:1;paint-order:stroke markers fill"
           d="m 264.63945,153.92263 c 0.37396,0.1002 -0.13359,1.99441 1.36226,2.39522 1.49588,0.40082 2.55116,-3.37684 4.75478,-2.78638 2.20361,0.59045 1.00175,6.35905 4.08682,7.18569 3.08503,0.82663 5.54301,-6.63561 9.5095,-5.57279 3.9665,1.06282 1.96341,10.67716 6.81135,11.97617 4.84795,1.299 8.53489,-9.89435 14.26427,-8.35917 5.72938,1.53518 3.92643,15.26356 9.53591,16.76661 5.60948,1.50306 13.40953,-12.64861 19.01901,-11.14555"
           id="path13"
           sodipodi:nodetypes="czzzzzzzc"
           inkscape:label="ray0"
           inkscape:transform-center-x="-49.999998"
           inkscape:transform-center-y="-1.1444091e-06" /><path
           style="fill:none;stroke:url(#linearGradient14);stroke-width:0.311739;stroke-linecap:square;stroke-linejoin:miter;stroke-miterlimit:4.4;stroke-dasharray:none;stroke-opacity:1;paint-order:stroke markers fill"
           d="m 263.12537,157.57793 c 0.33529,0.19358 -0.64523,1.89189 0.69592,2.6662 1.34116,0.77432 3.33822,-2.6015 5.31393,-1.46082 1.9757,1.14067 -0.67823,6.40164 2.08777,7.99859 2.76596,1.59693 7.07155,-4.97487 10.62782,-2.92166 3.55626,2.05321 -0.86695,10.82152 3.4796,13.331 4.34655,2.50948 10.80491,-7.34822 15.94173,-4.38247 5.13682,2.96574 -0.15786,15.7597 4.87146,18.66338 5.02933,2.90368 16.22632,-8.74698 21.25564,-5.8433"
           id="path14"
           sodipodi:nodetypes="czzzzzzzc"
           inkscape:label="ray0"
           inkscape:transform-center-x="-49.999998"
           inkscape:transform-center-y="-1.1444091e-06" /><path
           style="fill:none;stroke:url(#linearGradient15);stroke-width:0.311739;stroke-linecap:square;stroke-linejoin:miter;stroke-miterlimit:4.4;stroke-dasharray:none;stroke-opacity:1;paint-order:stroke markers fill"
           d="m 260.71682,160.71682 c 0.27376,0.27376 -1.11289,1.66042 -0.0179,2.75546 1.09505,1.09505 3.89779,-1.64885 5.51095,-0.0357 1.61315,1.61315 -2.31199,6.00798 -0.0536,8.26641 2.2584,2.2584 8.11819,-2.97511 11.02186,-0.0714 2.90368,2.90368 -3.63822,10.2284 -0.0893,13.77734 3.54894,3.54894 12.33861,-4.30132 16.5328,-0.10712 4.1942,4.1942 -4.23139,15.18185 -0.12496,19.28827 4.10642,4.10642 17.93729,-4.24925 22.04372,-0.14283"
           id="path15"
           sodipodi:nodetypes="czzzzzzzc"
           inkscape:label="ray0"
           inkscape:transform-center-x="-49.999998"
           inkscape:transform-center-y="-1.1444091e-06" /><path
           style="fill:none;stroke:url(#linearGradient17);stroke-width:0.311739;stroke-linecap:square;stroke-linejoin:miter;stroke-miterlimit:4.4;stroke-dasharray:none;stroke-opacity:1;paint-order:stroke markers fill"
           d="m 257.57794,163.12537 c 0.19358,0.33529 -1.50472,1.3158 -0.73041,2.65695 0.77432,1.34116 4.19173,-0.58385 5.3324,1.39186 1.14067,1.9757 -3.78818,5.20487 -2.19123,7.97087 1.59693,2.76596 8.61158,-0.77259 10.66479,2.78368 2.05321,3.55626 -6.16156,8.93823 -3.65208,13.28478 2.50948,4.34654 13.03144,-0.96129 15.99719,4.17553 2.96574,5.13682 -8.01656,13.56937 -5.11288,18.59869 2.90368,5.02932 18.42588,0.53805 21.32956,5.56738"
           id="path16"
           sodipodi:nodetypes="czzzzzzzc"
           inkscape:label="ray0"
           inkscape:transform-center-x="-49.999998"
           inkscape:transform-center-y="-1.1444091e-06" /><path
           style="fill:none;stroke:url(#linearGradient18);stroke-width:0.311739;stroke-linecap:square;stroke-linejoin:miter;stroke-miterlimit:4.4;stroke-dasharray:none;stroke-opacity:1;paint-order:stroke markers fill"
           d="m 253.92263,164.63945 c 0.1002,0.37396 -1.794,0.88151 -1.39319,2.37737 0.40082,1.49587 4.20001,0.52094 4.79047,2.72456 0.59045,2.2036 -5.00623,4.04707 -4.17959,7.13214 0.82664,3.08503 8.51811,1.48258 9.58093,5.44907 1.06282,3.9665 -8.26499,7.03895 -6.96599,11.88689 1.29901,4.84794 12.83621,2.44425 14.37139,8.17363 1.53518,5.72938 -11.25542,11.03217 -9.75236,16.64165 1.50306,5.60948 17.65878,5.28869 19.16184,10.89817"
           id="path17"
           sodipodi:nodetypes="czzzzzzzc"
           inkscape:label="ray0"
           inkscape:transform-center-x="-49.999998"
           inkscape:transform-center-y="-1.1444091e-06" /><path
           style="fill:none;stroke:url(#linearGradient19);stroke-width:0.311739;stroke-linecap:square;stroke-linejoin:miter;stroke-miterlimit:4.4;stroke-dasharray:none;stroke-opacity:1;paint-order:stroke markers fill"
           d="m 250,165.15587 c 0,0.38716 -1.96103,0.38716 -1.96103,1.93578 0,1.54864 3.92207,1.59024 3.92207,3.87159 0,2.28134 -5.8831,2.61346 -5.8831,5.80736 0,3.19386 7.84414,3.63671 7.84414,7.74313 0,4.10642 -9.80518,4.65996 -9.80518,9.67892 0,5.01896 11.7662,5.68322 11.7662,11.61471 0,5.93149 -13.72723,7.74314 -13.72723,13.5505 0,5.80736 15.68826,9.67891 15.68826,15.48627"
           id="path18"
           sodipodi:nodetypes="czzzzzzzc"
           inkscape:label="ray0"
           inkscape:transform-center-x="-49.999998"
           inkscape:transform-center-y="-1.1444091e-06" /><path
           style="fill:none;stroke:url(#linearGradient20);stroke-width:0.311739;stroke-linecap:square;stroke-linejoin:miter;stroke-miterlimit:4.4;stroke-dasharray:none;stroke-opacity:1;paint-order:stroke markers fill"
           d="m 246.07738,164.63945 c -0.10021,0.37396 -1.99442,-0.13359 -2.39523,1.36226 -0.40082,1.49588 3.37684,2.55116 2.78639,4.75478 -0.59046,2.2036 -6.35905,1.00175 -7.1857,4.08682 -0.82663,3.08503 6.63561,5.543 5.57279,9.5095 -1.06282,3.9665 -10.67716,1.96341 -11.97616,6.81135 -1.29901,4.84795 9.89435,8.53489 8.35916,14.26427 -1.53518,5.72938 -15.26355,3.92643 -16.76661,9.53591 -1.50305,5.60948 12.64861,13.40953 11.14555,19.01901"
           id="path19"
           sodipodi:nodetypes="czzzzzzzc"
           inkscape:label="ray0"
           inkscape:transform-center-x="-49.999998"
           inkscape:transform-center-y="-1.1444091e-06" /><path
           style="fill:none;stroke:url(#linearGradient21);stroke-width:0.311739;stroke-linecap:square;stroke-linejoin:miter;stroke-miterlimit:4.4;stroke-dasharray:none;stroke-opacity:1;paint-order:stroke markers fill"
           d="m 242.42207,163.12537 c -0.19358,0.33529 -1.89188,-0.64523 -2.66619,0.69592 -0.77432,1.34116 2.60149,3.33822 1.46081,5.31393 -1.14067,1.9757 -6.40164,-0.67823 -7.99859,2.08777 -1.59693,2.76596 4.97487,7.07155 2.92166,10.62782 -2.05321,3.55626 -10.82152,-0.86695 -13.331,3.4796 -2.50948,4.34654 7.34822,10.80491 4.38248,15.94173 -2.96575,5.13682 -15.7597,-0.15786 -18.66338,4.87146 -2.90368,5.02932 8.74697,16.22632 5.84329,21.25564"
           id="path20"
           sodipodi:nodetypes="czzzzzzzc"
           inkscape:label="ray0"
           inkscape:transform-center-x="-49.999998"
           inkscape:transform-center-y="-1.1444091e-06" /><path
           style="fill:none;stroke:url(#linearGradient22);stroke-width:0.311739;stroke-linecap:square;stroke-linejoin:miter;stroke-miterlimit:4.4;stroke-dasharray:none;stroke-opacity:1;paint-order:stroke markers fill"
           d="m 239.28319,160.71682 c -0.27377,0.27376 -1.66043,-1.1129 -2.75547,-0.0179 -1.09505,1.09506 1.64886,3.8978 0.0357,5.51095 -1.61315,1.61316 -6.00798,-2.31198 -8.2664,-0.0536 -2.2584,2.2584 2.9751,8.11819 0.0714,11.02186 -2.90368,2.90368 -10.2284,-3.63822 -13.77734,-0.0893 -3.54894,3.54894 4.30132,12.33861 0.10712,16.5328 -4.1942,4.1942 -15.18184,-4.23139 -19.28827,-0.12496 -4.10642,4.10642 4.24926,17.93729 0.14283,22.04372"
           id="path21"
           sodipodi:nodetypes="czzzzzzzc"
           inkscape:label="ray0"
           inkscape:transform-center-x="-49.999998"
           inkscape:transform-center-y="-1.1444091e-06" /><path
           style="fill:none;stroke:url(#linearGradient23);stroke-width:0.311739;stroke-linecap:square;stroke-linejoin:miter;stroke-miterlimit:4.4;stroke-dasharray:none;stroke-opacity:1;paint-order:stroke markers fill"
           d="m 236.87464,157.57794 c -0.33529,0.19358 -1.31581,-1.50473 -2.65695,-0.73042 -1.34117,0.77432 0.58384,4.19174 -1.39186,5.33241 -1.9757,1.14067 -5.20488,-3.78818 -7.97088,-2.19123 -2.76596,1.59693 0.77259,8.61158 -2.78367,10.66479 -3.55627,2.05321 -8.93824,-6.16156 -13.28478,-3.65208 -4.34655,2.50948 0.96128,13.03144 -4.17554,15.99719 -5.13682,2.96574 -13.56937,-8.01656 -18.59869,-5.11288 -5.02932,2.90368 -0.53805,18.42588 -5.56737,21.32956"
           id="path22"
           sodipodi:nodetypes="czzzzzzzc"
           inkscape:label="ray0"
           inkscape:transform-center-x="-49.999998"
           inkscape:transform-center-y="-1.1444091e-06" /><path
           style="fill:none;stroke:url(#linearGradient24);stroke-width:0.311739;stroke-linecap:square;stroke-linejoin:miter;stroke-miterlimit:4.4;stroke-dasharray:none;stroke-opacity:1;paint-order:stroke markers fill"
           d="m 235.36056,153.92263 c -0.37397,0.1002 -0.88152,-1.79401 -2.37737,-1.39319 -1.49588,0.40081 -0.52095,4.20001 -2.72457,4.79047 -2.2036,0.59045 -4.04706,-5.00623 -7.13213,-4.17959 -3.08504,0.82664 -1.48258,8.51811 -5.44908,9.58093 -3.9665,1.06282 -7.03894,-8.26499 -11.88689,-6.96599 -4.84794,1.29901 -2.44425,12.83621 -8.17363,14.37139 -5.72938,1.53518 -11.03217,-11.25542 -16.64164,-9.75236 -5.60948,1.50305 -5.28869,17.65878 -10.89817,19.16184"
           id="path23"
           sodipodi:nodetypes="czzzzzzzc"
           inkscape:label="ray0"
           inkscape:transform-center-x="-49.999998"
           inkscape:transform-center-y="-1.1444091e-06" /><path
           style="fill:none;stroke:url(#linearGradient25);stroke-width:0.311739;stroke-linecap:square;stroke-linejoin:miter;stroke-miterlimit:4.4;stroke-dasharray:none;stroke-opacity:1;paint-order:stroke markers fill"
           d="m 234.84413,150 c -0.38716,0 -0.38716,-1.96103 -1.93578,-1.96103 -1.54864,0 -1.59024,3.92207 -3.87159,3.92207 -2.28134,0 -2.61346,-5.8831 -5.80736,-5.8831 -3.19386,0 -3.63671,7.84414 -7.74313,7.84414 -4.10642,0 -4.65996,-9.80518 -9.67892,-9.80518 -5.01896,0 -5.68322,11.7662 -11.61471,11.7662 -5.93149,0 -7.74314,-13.72723 -13.5505,-13.72723 -5.80736,0 -9.67891,15.68826 -15.48627,15.68826"
           id="path24"
           sodipodi:nodetypes="czzzzzzzc"
           inkscape:label="ray0"
           inkscape:transform-center-x="-49.999998"
           inkscape:transform-center-y="-1.1444091e-06" /><path
           style="fill:none;stroke:url(#linearGradient26);stroke-width:0.311739;stroke-linecap:square;stroke-linejoin:miter;stroke-miterlimit:4.4;stroke-dasharray:none;stroke-opacity:1;paint-order:stroke markers fill"
           d="m 235.36056,146.07737 c -0.37397,-0.1002 0.13358,-1.99441 -1.36227,-2.39522 -1.49587,-0.40082 -2.55116,3.37684 -4.75478,2.78639 -2.2036,-0.59046 -1.00175,-6.35906 -4.08682,-7.1857 -3.08503,-0.82663 -5.543,6.63561 -9.5095,5.57279 -3.9665,-1.06282 -1.96341,-10.67716 -6.81135,-11.97616 -4.84794,-1.29901 -8.53489,9.89435 -14.26427,8.35916 -5.72937,-1.53518 -3.92643,-15.26355 -9.5359,-16.76661 -5.60948,-1.50306 -13.40953,12.64861 -19.01901,11.14555"
           id="path25"
           sodipodi:nodetypes="czzzzzzzc"
           inkscape:label="ray0"
           inkscape:transform-center-x="-49.999998"
           inkscape:transform-center-y="-1.1444091e-06" /><path
           style="fill:none;stroke:url(#linearGradient27);stroke-width:0.311739;stroke-linecap:square;stroke-linejoin:miter;stroke-miterlimit:4.4;stroke-dasharray:none;stroke-opacity:1;paint-order:stroke markers fill"
           d="m 236.87463,142.42207 c -0.33529,-0.19358 0.64523,-1.89188 -0.69591,-2.66619 -1.34117,-0.77432 -3.33823,2.60149 -5.31394,1.46081 -1.97569,-1.14067 0.67823,-6.40164 -2.08777,-7.99859 -2.76596,-1.59693 -7.07155,4.97487 -10.62781,2.92166 -3.55627,-2.05321 0.86694,-10.82152 -3.4796,-13.331 -4.34655,-2.50948 -10.80492,7.34822 -15.94174,4.38248 -5.13682,-2.96575 0.15786,-15.7597 -4.87146,-18.66338 -5.02932,-2.90368 -16.22631,8.74697 -21.25563,5.84329"
           id="path26"
           sodipodi:nodetypes="czzzzzzzc"
           inkscape:label="ray0"
           inkscape:transform-center-x="-49.999998"
           inkscape:transform-center-y="-1.1444091e-06" /><path
           style="fill:none;stroke:url(#linearGradient28);stroke-width:0.311739;stroke-linecap:square;stroke-linejoin:miter;stroke-miterlimit:4.4;stroke-dasharray:none;stroke-opacity:1;paint-order:stroke markers fill"
           d="m 239.28318,139.28318 c -0.27376,-0.27376 1.1129,-1.66042 0.0179,-2.75546 -1.09506,-1.09505 -3.89779,1.64886 -5.51095,0.0357 -1.61315,-1.61315 2.31198,-6.00798 0.0536,-8.2664 -2.25841,-2.2584 -8.11819,2.9751 -11.02187,0.0714 -2.90368,-2.90368 3.63822,-10.2284 0.0893,-13.77734 -3.54894,-3.54894 -12.3386,4.30132 -16.5328,0.10712 -4.1942,-4.1942 4.23139,-15.181844 0.12497,-19.288267 -4.10643,-4.106424 -17.9373,4.249252 -22.04372,0.142828"
           id="path27"
           sodipodi:nodetypes="czzzzzzzc"
           inkscape:label="ray0"
           inkscape:transform-center-x="-49.999998"
           inkscape:transform-center-y="-1.1444091e-06" /><path
           style="fill:none;stroke:url(#linearGradient29);stroke-width:0.311739;stroke-linecap:square;stroke-linejoin:miter;stroke-miterlimit:4.4;stroke-dasharray:none;stroke-opacity:1;paint-order:stroke markers fill"
           d="m 242.42207,136.87464 c -0.19358,-0.3353 1.50472,-1.31581 0.73041,-2.65695 -0.77432,-1.34117 -4.19173,0.58384 -5.33241,-1.39186 -1.14067,-1.9757 3.78819,-5.20488 2.19124,-7.97088 -1.59693,-2.76596 -8.61158,0.77259 -10.66479,-2.78367 -2.05321,-3.55627 6.16155,-8.93824 3.65207,-13.28478 -2.50948,-4.34655 -13.03144,0.96128 -15.99718,-4.17554 -2.96575,-5.136819 8.01656,-13.569369 5.11288,-18.59869 -2.90368,-5.029322 -18.42589,-0.538052 -21.32957,-5.567373"
           id="path28"
           sodipodi:nodetypes="czzzzzzzc"
           inkscape:label="ray0"
           inkscape:transform-center-x="-49.999998"
           inkscape:transform-center-y="-1.1444091e-06" /><path
           style="fill:none;stroke:url(#linearGradient30);stroke-width:0.311739;stroke-linecap:square;stroke-linejoin:miter;stroke-miterlimit:4.4;stroke-dasharray:none;stroke-opacity:1;paint-order:stroke markers fill"
           d="m 246.07737,135.36056 c -0.1002,-0.37397 1.79401,-0.88152 1.3932,-2.37737 -0.40082,-1.49588 -4.20002,-0.52095 -4.79047,-2.72457 -0.59046,-2.2036 5.00622,-4.04706 4.17958,-7.13213 -0.82663,-3.08504 -8.51811,-1.48258 -9.58093,-5.44908 -1.06282,-3.9665 8.26499,-7.03894 6.96599,-11.88689 -1.299,-4.84794 -12.8362,-2.44425 -14.37138,-8.173629 -1.53519,-5.729379 11.25541,-11.032167 9.75235,-16.641646 -1.50305,-5.609479 -17.65878,-5.288689 -19.16183,-10.898168"
           id="path29"
           sodipodi:nodetypes="czzzzzzzc"
           inkscape:label="ray0"
           inkscape:transform-center-x="-49.999998"
           inkscape:transform-center-y="-1.1444091e-06" /><path
           style="fill:none;stroke:url(#linearGradient31);stroke-width:0.311739;stroke-linecap:square;stroke-linejoin:miter;stroke-miterlimit:4.4;stroke-dasharray:none;stroke-opacity:1;paint-order:stroke markers fill"
           d="m 250,134.84413 c 0,-0.38716 1.96103,-0.38716 1.96103,-1.93578 0,-1.54864 -3.92207,-1.59024 -3.92207,-3.87159 0,-2.28134 5.8831,-2.61346 5.8831,-5.80736 0,-3.19386 -7.84414,-3.63671 -7.84414,-7.74313 0,-4.10642 9.80518,-4.65996 9.80518,-9.67892 0,-5.01896 -11.7662,-5.68322 -11.7662,-11.614707 0,-5.93149 13.72723,-7.74314 13.72723,-13.5505 0,-5.80736 -15.68826,-9.67891 -15.68826,-15.48627"
           id="path30"
           sodipodi:nodetypes="czzzzzzzc"
           inkscape:label="ray0"
           inkscape:transform-center-x="-49.999998"
           inkscape:transform-center-y="-1.1444091e-06" /><path
           style="fill:none;stroke:url(#linearGradient32);stroke-width:0.311739;stroke-linecap:square;stroke-linejoin:miter;stroke-miterlimit:4.4;stroke-dasharray:none;stroke-opacity:1;paint-order:stroke markers fill"
           d="m 253.92263,135.36056 c 0.1002,-0.37397 1.99441,0.13358 2.39522,-1.36227 0.40082,-1.49587 -3.37684,-2.55116 -2.78638,-4.75478 0.59045,-2.2036 6.35905,-1.00175 7.18569,-4.08682 0.82663,-3.08503 -6.63561,-5.543 -5.57279,-9.5095 1.06282,-3.9665 10.67717,-1.96341 11.97617,-6.81135 1.299,-4.84794 -9.89435,-8.53489 -8.35917,-14.264266 1.53518,-5.729379 15.26356,-3.92643 16.76661,-9.535909 1.50306,-5.609479 -12.64861,-13.40953 -11.14555,-19.019009"
           id="path31"
           sodipodi:nodetypes="czzzzzzzc"
           inkscape:label="ray0"
           inkscape:transform-center-x="-49.999998"
           inkscape:transform-center-y="-1.1444091e-06" /><path
           style="fill:none;stroke:url(#linearGradient33);stroke-width:0.311739;stroke-linecap:square;stroke-linejoin:miter;stroke-miterlimit:4.4;stroke-dasharray:none;stroke-opacity:1;paint-order:stroke markers fill"
           d="m 257.57794,136.87463 c 0.19358,-0.33529 1.89188,0.64523 2.66619,-0.69592 0.77432,-1.34116 -2.6015,-3.33822 -1.46082,-5.31393 1.14067,-1.97569 6.40164,0.67823 7.99859,-2.08777 1.59693,-2.76596 -4.97487,-7.07155 -2.92166,-10.62781 2.05321,-3.55627 10.82152,0.86694 13.331,-3.47961 2.50948,-4.34654 -7.34822,-10.80491 -4.38247,-15.941729 2.96574,-5.136821 15.7597,0.157859 18.66338,-4.871462 2.90368,-5.029322 -8.74698,-16.226312 -5.8433,-21.255634"
           id="path32"
           sodipodi:nodetypes="czzzzzzzc"
           inkscape:label="ray0"
           inkscape:transform-center-x="-49.999998"
           inkscape:transform-center-y="-1.1444091e-06" /><path
           style="fill:none;stroke:url(#linearGradient34);stroke-width:0.311739;stroke-linecap:square;stroke-linejoin:miter;stroke-miterlimit:4.4;stroke-dasharray:none;stroke-opacity:1;paint-order:stroke markers fill"
           d="m 260.71682,139.28318 c 0.27376,-0.27376 1.66042,1.1129 2.75546,0.0179 1.09505,-1.09506 -1.64885,-3.89779 -0.0357,-5.51095 1.61316,-1.61315 6.00798,2.31198 8.26641,0.0536 2.2584,-2.2584 -2.9751,-8.11818 -0.0714,-11.02186 2.90368,-2.90368 10.2284,3.63822 13.77734,0.0893 3.54894,-3.54894 -4.30131,-12.3386 -0.10712,-16.5328 4.1942,-4.1942 15.18185,4.23139 19.28827,0.12497 4.10642,-4.10643 -4.24925,-17.937302 -0.14283,-22.043725"
           id="path33"
           sodipodi:nodetypes="czzzzzzzc"
           inkscape:label="ray0"
           inkscape:transform-center-x="-49.999998"
           inkscape:transform-center-y="-1.1444091e-06" /><path
           style="fill:none;stroke:url(#linearGradient35);stroke-width:0.311739;stroke-linecap:square;stroke-linejoin:miter;stroke-miterlimit:4.4;stroke-dasharray:none;stroke-opacity:1;paint-order:stroke markers fill"
           d="m 263.12537,142.42207 c 0.33529,-0.19358 1.3158,1.50472 2.65695,0.73041 1.34116,-0.77432 -0.58385,-4.19173 1.39186,-5.33241 1.9757,-1.14067 5.20487,3.78818 7.97087,2.19123 2.76596,-1.59693 -0.77259,-8.61157 2.78368,-10.66478 3.55626,-2.05321 8.93823,6.16155 13.28478,3.65207 4.34654,-2.50948 -0.96129,-13.03144 4.17553,-15.99718 5.13682,-2.96575 13.56937,8.01656 18.59869,5.11288 5.02932,-2.90368 0.53806,-18.42589 5.56738,-21.32957"
           id="path34"
           sodipodi:nodetypes="czzzzzzzc"
           inkscape:label="ray0"
           inkscape:transform-center-x="-49.999998"
           inkscape:transform-center-y="-1.1444091e-06" /><path
           style="fill:none;stroke:url(#linearGradient36);stroke-width:0.311739;stroke-linecap:square;stroke-linejoin:miter;stroke-miterlimit:4.4;stroke-dasharray:none;stroke-opacity:1;paint-order:stroke markers fill"
           d="m 264.63945,146.07737 c 0.37396,-0.1002 0.88152,1.79401 2.37737,1.3932 1.49587,-0.40082 0.52095,-4.20002 2.72456,-4.79047 2.20361,-0.59046 4.04707,5.00622 7.13214,4.17958 3.08503,-0.82663 1.48258,-8.51811 5.44907,-9.58093 3.9665,-1.06282 7.03895,8.26499 11.88689,6.96599 4.84794,-1.299 2.44425,-12.8362 8.17363,-14.37139 5.72938,-1.53518 11.03217,11.25542 16.64165,9.75236 5.60948,-1.50305 5.28869,-17.65878 10.89817,-19.16183"
           id="path35"
           sodipodi:nodetypes="czzzzzzzc"
           inkscape:label="ray0"
           inkscape:transform-center-x="-49.999998"
           inkscape:transform-center-y="-1.1444091e-06" /><path
           style="fill:none;stroke:url(#linearGradient9);stroke-width:0.311739;stroke-linecap:square;stroke-linejoin:miter;stroke-miterlimit:4.4;stroke-dasharray:none;stroke-opacity:1;paint-order:stroke markers fill"
           d="m 264.63945,146.07737 c 0.37396,-0.1002 0.88152,1.79401 2.37737,1.3932 1.49587,-0.40082 0.52095,-4.20002 2.72456,-4.79047 2.20361,-0.59046 4.04707,5.00622 7.13214,4.17958 3.08503,-0.82663 1.48258,-8.51811 5.44907,-9.58093 3.9665,-1.06282 7.03895,8.26499 11.88689,6.96599 4.84794,-1.299 2.44425,-12.8362 8.17363,-14.37139 5.72938,-1.53518 11.03217,11.25542 16.64165,9.75236 5.60948,-1.50305 5.28869,-17.65878 10.89817,-19.16183"
           id="path4"
           sodipodi:nodetypes="czzzzzzzc"
           inkscape:label="ray0"
           inkscape:transform-center-x="-47.281188"
           inkscape:transform-center-y="-16.004888" /></g><path
         id="ellipse17"
         style="fill:none;stroke:#0000ff;stroke-width:1.2;stroke-linecap:round;stroke-miterlimit:4.4"
         inkscape:label="ellipse0"
         d="m 134.5528,83.18565 c 1.07917,5.27727 1.66093,10.892626 1.66093,16.716579 0,30.787131 -16.25721,55.745041 -36.311501,55.745041 -8.582104,0 -16.468829,-4.57068 -22.68365,-12.2129 m -2.662006,-3.61354 c -3.270385,-4.89464 -5.941519,-10.72848 -7.828498,-17.21767 m -1.47642,-5.98436 c -1.079171,-5.27727 -1.66093,-10.89262 -1.66093,-16.716571 0,-30.787138 16.257214,-55.745044 36.311504,-55.745044 8.582101,1e-6 16.468821,4.570682 22.683641,12.212897 m 2.66201,3.613539 c 3.27038,4.894637 5.94152,10.728481 7.8285,17.217668 m -30.32585,-15.66563 c 5.10984,1.704045 10.26376,4.007906 15.30745,6.919883 26.66244,15.39357 40.14802,41.951688 30.12087,59.319208 -4.29105,7.43232 -12.19274,11.97708 -21.91851,13.53816 m -4.46042,0.4986 c -5.87407,0.38492 -12.26189,-0.21874 -18.82518,-1.82916 m -5.920821,-1.71356 C 91.944084,136.56475 86.790165,134.26089 81.746475,131.34891 55.084032,115.95534 41.598458,89.397229 51.625601,72.029704 55.916654,64.597382 63.818347,60.052619 73.544118,58.491537 m 4.46042,-0.498595 c 5.874068,-0.384917 12.261887,0.218734 18.825171,1.829154 M 68.099968,78.252223 c 4.030662,-3.573221 8.602818,-6.884713 13.646504,-9.796686 26.662448,-15.39357 56.405238,-13.79336 66.432378,3.574168 4.29105,7.43232 4.27609,16.547765 0.76514,25.751067 m -1.79841,4.112138 c -2.60369,5.27955 -6.32038,10.50974 -10.99669,15.38851 m -4.4444,4.2708 c -4.03066,3.57322 -8.60282,6.88471 -13.64651,9.79669 -26.662443,15.39357 -56.405231,13.79336 -66.432377,-3.57416 -4.291056,-7.43232 -4.276091,-16.54777 -0.765143,-25.75108 m 1.798413,-4.112131 c 2.603689,-5.279558 6.320381,-10.509752 10.996695,-15.388518"
         inkscape:original-d="M 136.21373,99.902229 A 36.311504,55.745045 0 0 1 99.902229,155.64727 36.311504,55.745045 0 0 1 63.590725,99.902229 36.311504,55.745045 0 0 1 99.902229,44.157185 36.311504,55.745045 0 0 1 136.21373,99.902229 Z M 118.05798,68.455542 a 55.745045,36.311504 30 0 1 30.12087,59.319208 55.745045,36.311504 30 0 1 -66.432375,3.57416 55.745045,36.311504 30 0 1 -30.120874,-59.319206 55.745045,36.311504 30 0 1 66.432379,-3.574162 z m -36.311508,-5e-6 a 36.311504,55.745045 60 0 1 66.432378,3.574168 36.311504,55.745045 60 0 1 -30.12087,59.319205 36.311504,55.745045 60 0 1 -66.432377,-3.57416 36.311504,55.745045 60 0 1 30.120869,-59.319213 z"
         inkscape:path-effect="#path-effect1"
         transform="translate(150.09777,50.09778)"
         inkscape:transform-center-x="0.88555859"
         inkscape:transform-center-y="-16.319559" /><circle
         style="fill:url(#radialGradient14);stroke:#000000;stroke-width:0;stroke-miterlimit:4.4"
         id="path1"
         cx="250"
         cy="150"
         r="18.998142"
         inkscape:label="center"
         inkscape:transform-center-x="0.88555388"
         inkscape:transform-center-y="-16.319567" /></g><path
       style="fill:#cccccc;fill-opacity:1;stroke:#000000;stroke-width:23;stroke-linecap:round;stroke-linejoin:round;stroke-miterlimit:4.4;stroke-dasharray:none;stroke-opacity:1;paint-order:markers stroke fill"
       d="M 320.00001,80 V 230 H 560 V 80 39.999999 H 440 L 400,80 Z"
       id="path37"
       inkscape:label="folder" /><g
       id="g15"
       transform="matrix(0.26458333,0,0,0.26458333,490.04792,26.53021)">&#10;	<g
   id="g4">&#10;		<g
   id="g3">&#10;			<g
   id="g2">&#10;				<path
   class="st4"
   d="m 40.2,101.1 c -0.4,0 -0.5,-0.2 -0.3,-0.5 L 42,97.9 c 0.2,-0.3 0.7,-0.5 1.1,-0.5 h 35.7 c 0.4,0 0.5,0.3 0.3,0.6 l -1.7,2.6 c -0.2,0.3 -0.7,0.6 -1,0.6 z"
   id="path1-4"
   style="fill:#00acd7" />&#10;			</g>&#10;		</g>&#10;	</g>&#10;	<g
   id="g7">&#10;		<g
   id="g6">&#10;			<g
   id="g5">&#10;				<path
   class="st4"
   d="m 25.1,110.3 c -0.4,0 -0.5,-0.2 -0.3,-0.5 l 2.1,-2.7 c 0.2,-0.3 0.7,-0.5 1.1,-0.5 h 45.6 c 0.4,0 0.6,0.3 0.5,0.6 l -0.8,2.4 c -0.1,0.4 -0.5,0.6 -0.9,0.6 z"
   id="path3"
   style="fill:#00acd7" />&#10;			</g>&#10;		</g>&#10;	</g>&#10;	<g
   id="g10">&#10;		<g
   id="g9">&#10;			<g
   id="g8">&#10;				<path
   class="st4"
   d="m 49.3,119.5 c -0.4,0 -0.5,-0.3 -0.3,-0.6 l 1.4,-2.5 c 0.2,-0.3 0.6,-0.6 1,-0.6 h 20 c 0.4,0 0.6,0.3 0.6,0.7 l -0.2,2.4 c 0,0.4 -0.4,0.7 -0.7,0.7 z"
   id="path6"
   style="fill:#00acd7" />&#10;			</g>&#10;		</g>&#10;	</g>&#10;	<g
   id="g14">&#10;		<g
   id="CXHf1q_3_">&#10;			<g
   id="g13">&#10;				<g
   id="g11">&#10;					<path
   class="st4"
   d="m 153.1,99.3 c -6.3,1.6 -10.6,2.8 -16.8,4.4 -1.5,0.4 -1.6,0.5 -2.9,-1 -1.5,-1.7 -2.6,-2.8 -4.7,-3.8 -6.3,-3.1 -12.4,-2.2 -18.1,1.5 -6.8,4.4 -10.3,10.9 -10.2,19 0.1,8 5.6,14.6 13.5,15.7 6.8,0.9 12.5,-1.5 17,-6.6 0.9,-1.1 1.7,-2.3 2.7,-3.7 -3.6,0 -8.1,0 -19.3,0 -2.1,0 -2.6,-1.3 -1.9,-3 1.3,-3.1 3.7,-8.3 5.1,-10.9 0.3,-0.6 1,-1.6 2.5,-1.6 5.1,0 23.9,0 36.4,0 -0.2,2.7 -0.2,5.4 -0.6,8.1 -1.1,7.2 -3.8,13.8 -8.2,19.6 -7.2,9.5 -16.6,15.4 -28.5,17 -9.8,1.3 -18.9,-0.6 -26.9,-6.6 -7.4,-5.6 -11.6,-13 -12.7,-22.2 -1.3,-10.9 1.9,-20.7 8.5,-29.3 7.1,-9.3 16.5,-15.2 28,-17.3 9.4,-1.7 18.4,-0.6 26.5,4.9 5.3,3.5 9.1,8.3 11.6,14.1 0.6,0.9 0.2,1.4 -1,1.7 z"
   id="path9"
   style="fill:#00acd7" />&#10;				</g>&#10;				<g
   id="g12">&#10;					<path
   class="st4"
   d="m 186.2,154.6 c -9.1,-0.2 -17.4,-2.8 -24.4,-8.8 -5.9,-5.1 -9.6,-11.6 -10.8,-19.3 -1.8,-11.3 1.3,-21.3 8.1,-30.2 7.3,-9.6 16.1,-14.6 28,-16.7 10.2,-1.8 19.8,-0.8 28.5,5.1 7.9,5.4 12.8,12.7 14.1,22.3 1.7,13.5 -2.2,24.5 -11.5,33.9 -6.6,6.7 -14.7,10.9 -24,12.8 -2.7,0.5 -5.4,0.6 -8,0.9 z M 210,114.2 c -0.1,-1.3 -0.1,-2.3 -0.3,-3.3 -1.8,-9.9 -10.9,-15.5 -20.4,-13.3 -9.3,2.1 -15.3,8 -17.5,17.4 -1.8,7.8 2,15.7 9.2,18.9 5.5,2.4 11,2.1 16.3,-0.6 7.9,-4.1 12.2,-10.5 12.7,-19.1 z"
   id="path10"
   style="fill:#00acd7" />&#10;				</g>&#10;			</g>&#10;		</g>&#10;	</g>&#10;</g><path
       style="fill:none;fill-opacity:1;stroke:#00ffe4;stroke-width:10;stroke-linecap:round;stroke-linejoin:round;stroke-miterlimit:4.4;stroke-dasharray:none;stroke-opacity:1;marker-end:url(#DartArrow);paint-order:markers stroke fill"
       d="m 140,70.000002 c 65.87338,-26.096285 139.24641,-75.2846132 260,0"
       id="path38"
       sodipodi:nodetypes="cc" /></g></svg>
