<?xml version="1.0" encoding="UTF-8" standalone="no"?>
<!-- Created with Inkscape (http://www.inkscape.org/) -->

<svg
   width="250mm"
   height="150mm"
   viewBox="0 0 250 150"
   version="1.1"
   id="svg1"
   xml:space="preserve"
   sodipodi:docname="P2P_TURN.svg"
   inkscape:version="1.3 (0e150ed, 2023-07-21)"
   inkscape:export-filename="p2p_turn.png"
   inkscape:export-xdpi="101.6"
   inkscape:export-ydpi="101.6"
   xmlns:inkscape="http://www.inkscape.org/namespaces/inkscape"
   xmlns:sodipodi="http://sodipodi.sourceforge.net/DTD/sodipodi-0.dtd"
   xmlns="http://www.w3.org/2000/svg"
   xmlns:svg="http://www.w3.org/2000/svg"><sodipodi:namedview
     id="namedview1"
     pagecolor="#ffffff"
     bordercolor="#000000"
     borderopacity="0.25"
     inkscape:showpageshadow="2"
     inkscape:pageopacity="0.0"
     inkscape:pagecheckerboard="0"
     inkscape:deskcolor="#d1d1d1"
     inkscape:document-units="mm"
     inkscape:zoom="0.76255224"
     inkscape:cx="319.97808"
     inkscape:cy="300.30729"
     inkscape:window-width="1472"
     inkscape:window-height="829"
     inkscape:window-x="0"
     inkscape:window-y="37"
     inkscape:window-maximized="1"
     inkscape:current-layer="layer1" /><defs
     id="defs1"><marker
       style="overflow:visible"
       id="marker9"
       refX="0"
       refY="0"
       orient="auto-start-reverse"
       inkscape:stockid="Dart arrow"
       markerWidth="1"
       markerHeight="1"
       viewBox="0 0 1 1"
       inkscape:isstock="true"
       inkscape:collect="always"
       preserveAspectRatio="xMidYMid"><path
         style="fill:context-stroke;fill-rule:evenodd;stroke:none"
         d="M 0,0 5,-5 -12.5,0 5,5 Z"
         transform="scale(-0.5)"
         id="path9" /></marker><marker
       style="overflow:visible"
       id="marker8"
       refX="0"
       refY="0"
       orient="auto-start-reverse"
       inkscape:stockid="Dart arrow"
       markerWidth="1"
       markerHeight="1"
       viewBox="0 0 1 1"
       inkscape:isstock="true"
       inkscape:collect="always"
       preserveAspectRatio="xMidYMid"><path
         style="fill:context-stroke;fill-rule:evenodd;stroke:none"
         d="M 0,0 5,-5 -12.5,0 5,5 Z"
         transform="scale(-0.5)"
         id="path8" /></marker><marker
       style="overflow:visible"
       id="marker4"
       refX="0"
       refY="0"
       orient="auto-start-reverse"
       inkscape:stockid="Dart arrow"
       markerWidth="1"
       markerHeight="1"
       viewBox="0 0 1 1"
       inkscape:isstock="true"
       inkscape:collect="always"
       preserveAspectRatio="xMidYMid"><path
         style="fill:context-stroke;fill-rule:evenodd;stroke:none"
         d="M 0,0 5,-5 -12.5,0 5,5 Z"
         transform="scale(-0.5)"
         id="path4" /></marker><marker
       style="overflow:visible"
       id="DartArrow"
       refX="0"
       refY="0"
       orient="auto-start-reverse"
       inkscape:stockid="Dart arrow"
       markerWidth="1"
       markerHeight="1"
       viewBox="0 0 1 1"
       inkscape:isstock="true"
       inkscape:collect="always"
       preserveAspectRatio="xMidYMid"><path
         style="fill:context-stroke;fill-rule:evenodd;stroke:none"
         d="M 0,0 5,-5 -12.5,0 5,5 Z"
         transform="scale(-0.5)"
         id="path6" /></marker></defs><g
     inkscape:label="Layer 1"
     inkscape:groupmode="layer"
     id="layer1"><path
       d="m 112.07183,15.007676 c 0,-1.529536 1.25144,-2.780973 2.78098,-2.780973 h 22.24778 c 1.53587,0 2.78097,1.245083 2.78097,2.780973 v 2.780969 c 0,1.53589 -1.2451,2.780974 -2.78097,2.780974 h -22.24778 c -1.53589,0 -2.78098,-1.245084 -2.78098,-2.780974 z m 0,9.733401 c 0,-1.529537 1.25144,-2.780973 2.78098,-2.780973 h 22.24778 c 1.53587,0 2.78097,1.245083 2.78097,2.780973 v 2.780973 c 0,1.535886 -1.2451,2.780969 -2.78097,2.780969 h -22.24778 c -1.53589,0 -2.78098,-1.245083 -2.78098,-2.780969 z m 0,9.7334 c 0,-1.529531 1.25144,-2.780968 2.78098,-2.780968 h 22.24778 c 1.53587,0 2.78097,1.245083 2.78097,2.780968 v 2.780974 c 0,1.535885 -1.2451,2.780973 -2.78097,2.780973 h -22.24778 c -1.53589,0 -2.78098,-1.245088 -2.78098,-2.780973 z m 16.68583,-19.466801 c -0.65547,0.655478 -0.65547,2.125486 0,2.780969 0.65549,0.655483 2.1255,0.655483 2.78098,0 0.65548,-0.655483 0.65548,-2.125491 0,-2.780969 -0.65548,-0.655482 -2.12549,-0.655482 -2.78098,0 z m 5.56196,0 c -0.65549,0.655478 -0.65549,2.125486 0,2.780969 0.65547,0.655483 2.12548,0.655483 2.78097,0 0.65548,-0.655483 0.65548,-2.125491 0,-2.780969 -0.65549,-0.655482 -2.1255,-0.655482 -2.78097,0 z m -5.56196,9.733401 c -0.65547,0.655482 -0.65547,2.125491 0,2.780973 0.65549,0.655478 2.1255,0.655478 2.78098,0 0.65548,-0.655482 0.65548,-2.125491 0,-2.780973 -0.65548,-0.655483 -2.12549,-0.655483 -2.78098,0 z m 5.56196,0 c -0.65549,0.655482 -0.65549,2.125491 0,2.780973 0.65547,0.655478 2.12548,0.655478 2.78097,0 0.65548,-0.655482 0.65548,-2.125491 0,-2.780973 -0.65549,-0.655483 -2.1255,-0.655483 -2.78097,0 z m -5.56196,9.7334 c -0.65547,0.655483 -0.65547,2.125492 0,2.780974 0.65549,0.655482 2.1255,0.655482 2.78098,0 0.65548,-0.655482 0.65548,-2.125491 0,-2.780974 -0.65548,-0.655483 -2.12549,-0.655483 -2.78098,0 z m 5.56196,0 c -0.65549,0.655483 -0.65549,2.125492 0,2.780974 0.65547,0.655482 2.12548,0.655482 2.78097,0 0.65548,-0.655482 0.65548,-2.125491 0,-2.780974 -0.65549,-0.655483 -2.1255,-0.655483 -2.78097,0 z"
       id="path1"
       sodipodi:nodetypes="sssssssssssssssssssssssssssaaaaaaaaaaaaaaaaaaaaaaaaaaaaaa"
       style="stroke-width:1.39048" /><circle
       style="fill:#ffffff;stroke-width:0.248557"
       id="path2"
       cx="139.58388"
       cy="39.859425"
       r="12.110147" /><rect
       style="fill:#000000;stroke-width:0.172082"
       id="rect8"
       width="36.644093"
       height="20.992096"
       x="21.179893"
       y="60.635391"
       ry="2.3140697" /><rect
       style="fill:#ffffff;stroke-width:0.152115"
       id="rect10"
       width="32.392017"
       height="18.556231"
       x="23.305927"
       y="61.853325"
       ry="2.0455518" /><rect
       style="fill:#000000;stroke-width:0.172082"
       id="rect11"
       width="15.836142"
       height="28.726027"
       x="47.443928"
       y="66.403214"
       ry="3.1666214" /><rect
       style="fill:#ffffff;stroke-width:0.149531"
       id="rect12"
       width="13.400278"
       height="25.633045"
       x="48.661861"
       y="67.949715"
       ry="2.825666" /><path
       style="fill:#ffffff;stroke:#000000;stroke-width:2.1397;stroke-dasharray:none;stroke-opacity:1;marker-start:url(#marker4);marker-end:url(#DartArrow)"
       d="M 69.221391,50.108417 98.060935,38.645045"
       id="path12"
       sodipodi:nodetypes="cc" /><rect
       style="fill:#000000;stroke-width:0.172082"
       id="rect1"
       width="36.644093"
       height="20.992096"
       x="189.62849"
       y="60.635391"
       ry="2.3140697" /><rect
       style="fill:#ffffff;stroke-width:0.152115"
       id="rect2"
       width="32.392017"
       height="18.556231"
       x="191.75453"
       y="61.853325"
       ry="2.0455518" /><rect
       style="fill:#000000;stroke-width:0.172082"
       id="rect3"
       width="15.836142"
       height="28.726027"
       x="215.89253"
       y="66.403214"
       ry="3.1666214" /><rect
       style="fill:#ffffff;stroke-width:0.149531"
       id="rect4"
       width="13.400278"
       height="25.633045"
       x="217.11046"
       y="67.949715"
       ry="2.825666" /><path
       style="fill:#ffffff;stroke:#000000;stroke-width:2.1397;stroke-dasharray:none;stroke-opacity:1;marker-start:url(#marker4);marker-end:url(#DartArrow)"
       d="m 159.51626,38.55291 24.0483,11.420306"
       id="path5"
       sodipodi:nodetypes="cc" /><path
       d="m 146.61874,41.33073 c 0.27745,0 0.53594,-0.224992 0.57371,-0.500051 0,0 0.053,-0.386614 0.053,-0.846384 0,-0.459771 -0.053,-0.846385 -0.053,-0.846385 -0.0381,-0.275185 -0.29626,-0.500177 -0.57371,-0.500177 h -1.43465 c -0.27781,0 -0.56618,-0.177056 -0.64071,-0.39339 -0.0745,-0.216333 -0.17744,-0.910381 0.019,-1.106637 l 1.01391,-1.01403 c 0.19625,-0.196382 0.21156,-0.531547 0.0338,-0.744994 l -1.19296,-1.193346 c -0.21345,-0.177936 -0.54849,-0.162878 -0.74513,0.03363 l -1.0139,1.014031 c -0.19626,0.196506 -0.52364,0.275561 -0.72692,0.175927 -0.20329,-0.09963 -0.77336,-0.519877 -0.77336,-0.797572 v -1.43465 c 0,-0.277694 -0.22511,-0.535939 -0.50005,-0.573709 0,0 -0.38661,-0.0532 -0.84638,-0.0532 -0.45977,0 -0.84639,0.0532 -0.84639,0.0532 -0.27519,0.03777 -0.50042,0.296015 -0.50042,0.573709 v 1.43465 c 0,0.277695 -0.17694,0.566055 -0.3934,0.640718 -0.21646,0.07466 -0.91038,0.177433 -1.10676,-0.01895 l -1.01403,-1.014031 c -0.19638,-0.19638 -0.53155,-0.211564 -0.74487,-0.03375 l -1.19322,1.19322 c -0.17793,0.213447 -0.16287,0.548487 0.0336,0.744994 l 1.01391,1.014031 c 0.19638,0.196381 0.27569,0.523516 0.17593,0.726799 -0.0998,0.203283 -0.51988,0.773353 -0.79757,0.773353 h -1.4344 c -0.27769,0 -0.53594,0.225117 -0.57384,0.500177 0,0 -0.0532,0.386613 -0.0532,0.846259 0,0.459896 0.0532,0.846259 0.0532,0.846259 0.0378,0.27531 0.29602,0.500302 0.57384,0.500302 h 1.43465 c 0.27769,0 0.56605,0.176806 0.64059,0.39339 0.0747,0.216459 0.17743,0.910255 -0.0191,1.106511 l -1.01391,1.01403 c -0.19638,0.196382 -0.21156,0.531548 -0.0336,0.74512 l 1.19309,1.193221 c 0.21345,0.17781 0.54836,0.163002 0.74487,-0.03375 l 1.01403,-1.013905 c 0.19638,-0.196256 0.52351,-0.275436 0.72692,-0.175802 0.20341,0.09963 0.77323,0.519877 0.77323,0.797447 v 1.43465 c 0,0.277568 0.22512,0.535813 0.50043,0.573458 0,0 0.38649,0.0532 0.84639,0.0532 0.45989,0 0.84638,-0.0532 0.84638,-0.0532 0.27518,-0.03777 0.50005,-0.29589 0.50005,-0.573458 v -1.43465 c 0,-0.277695 0.17706,-0.566181 0.39352,-0.640718 0.21658,-0.07466 0.9105,-0.177308 1.10676,0.01895 l 1.0139,1.01403 c 0.19638,0.196131 0.53155,0.211565 0.74512,0.03363 l 1.19297,-1.192844 c 0.17781,-0.213446 0.163,-0.548361 -0.0338,-0.745119 l -1.0139,-1.013905 c -0.19638,-0.196256 -0.27569,-0.523516 -0.1758,-0.726924 0.0996,-0.203283 0.51987,-0.773354 0.79744,-0.773354 z m -6.80759,1.374795 c -1.50291,0 -2.72123,-1.218067 -2.72123,-2.721356 0,-1.502788 1.21832,-2.72123 2.72123,-2.72123 1.50292,0 2.72136,1.218317 2.72136,2.72123 0,1.502913 -1.21844,2.721356 -2.72136,2.721356 z"
       fill="#010101"
       id="path1-3"
       style="stroke-width:0.125483" /><path
       style="fill:#ffffff;stroke:#7c7c7c;stroke-width:2.14;stroke-opacity:1;marker-start:url(#marker8);marker-end:url(#marker9)"
       d="m 83.213,73.979438 h 88.56987"
       id="path7"
       sodipodi:nodetypes="cc" /><path
       style="fill:#ffffff;stroke:#000000;stroke-width:2.1397;stroke-dasharray:none;stroke-opacity:1;marker-start:url(#marker4);marker-end:url(#DartArrow)"
       d="m 69.221391,102.54222 28.839544,11.46337"
       id="path19"
       sodipodi:nodetypes="cc" /><path
       style="fill:#ffffff;stroke:#000000;stroke-width:2.1397;stroke-dasharray:none;stroke-opacity:1;marker-start:url(#marker4);marker-end:url(#DartArrow)"
       d="m 159.51626,114.09773 26.91955,-11.42031"
       id="path20"
       sodipodi:nodetypes="cc" /><path
       d="m 112.07183,108.80174 c 0,-1.52954 1.25144,-2.78098 2.78098,-2.78098 h 22.24778 c 1.53587,0 2.78097,1.24509 2.78097,2.78098 v 2.78097 c 0,1.53589 -1.2451,2.78097 -2.78097,2.78097 h -22.24778 c -1.53589,0 -2.78098,-1.24508 -2.78098,-2.78097 z m 0,9.7334 c 0,-1.52954 1.25144,-2.78098 2.78098,-2.78098 h 22.24778 c 1.53587,0 2.78097,1.24509 2.78097,2.78098 v 2.78097 c 0,1.53589 -1.2451,2.78097 -2.78097,2.78097 h -22.24778 c -1.53589,0 -2.78098,-1.24508 -2.78098,-2.78097 z m 0,9.7334 c 0,-1.52953 1.25144,-2.78097 2.78098,-2.78097 h 22.24778 c 1.53587,0 2.78097,1.24508 2.78097,2.78097 v 2.78097 c 0,1.53589 -1.2451,2.78097 -2.78097,2.78097 h -22.24778 c -1.53589,0 -2.78098,-1.24508 -2.78098,-2.78097 z m 16.68583,-19.4668 c -0.65547,0.65547 -0.65547,2.12548 0,2.78097 0.65549,0.65548 2.1255,0.65548 2.78098,0 0.65548,-0.65549 0.65548,-2.1255 0,-2.78097 -0.65548,-0.65549 -2.12549,-0.65549 -2.78098,0 z m 5.56196,0 c -0.65549,0.65547 -0.65549,2.12548 0,2.78097 0.65547,0.65548 2.12548,0.65548 2.78097,0 0.65548,-0.65549 0.65548,-2.1255 0,-2.78097 -0.65549,-0.65549 -2.1255,-0.65549 -2.78097,0 z m -5.56196,9.7334 c -0.65547,0.65548 -0.65547,2.12549 0,2.78097 0.65549,0.65548 2.1255,0.65548 2.78098,0 0.65548,-0.65548 0.65548,-2.12549 0,-2.78097 -0.65548,-0.65549 -2.12549,-0.65549 -2.78098,0 z m 5.56196,0 c -0.65549,0.65548 -0.65549,2.12549 0,2.78097 0.65547,0.65548 2.12548,0.65548 2.78097,0 0.65548,-0.65548 0.65548,-2.12549 0,-2.78097 -0.65549,-0.65549 -2.1255,-0.65549 -2.78097,0 z m -5.56196,9.7334 c -0.65547,0.65548 -0.65547,2.12549 0,2.78097 0.65549,0.65548 2.1255,0.65548 2.78098,0 0.65548,-0.65548 0.65548,-2.12549 0,-2.78097 -0.65548,-0.65549 -2.12549,-0.65549 -2.78098,0 z m 5.56196,0 c -0.65549,0.65548 -0.65549,2.12549 0,2.78097 0.65547,0.65548 2.12548,0.65548 2.78097,0 0.65548,-0.65548 0.65548,-2.12549 0,-2.78097 -0.65549,-0.65549 -2.1255,-0.65549 -2.78097,0 z"
       id="path22"
       sodipodi:nodetypes="sssssssssssssssssssssssssssaaaaaaaaaaaaaaaaaaaaaaaaaaaaaa"
       style="stroke-width:1.39048" /><circle
       style="fill:#ffffff;stroke-width:0.248557"
       id="circle22"
       cx="139.58388"
       cy="133.65349"
       r="12.110147" /><text
       xml:space="preserve"
       style="font-size:14.7057px;fill:#ffffff;stroke:#7c7c7c;stroke-width:2.50112;stroke-linecap:butt;stroke-dasharray:none;stroke-opacity:1;paint-order:normal"
       x="134.78499"
       y="139.07324"
       id="text24"><tspan
         sodipodi:role="line"
         id="tspan24"
         style="stroke-width:2.50112;stroke-dasharray:none"
         x="134.78499"
         y="139.07324">T</tspan></text><path
       style="fill:#ffffff;stroke:#7c7c7c;stroke-width:2.14;stroke-opacity:1;marker-start:url(#marker8);marker-end:url(#marker9)"
       d="m 83.213,89.405332 c 31.2195,15.893088 60.51164,15.310098 88.56987,0"
       id="path3"
       sodipodi:nodetypes="cc" /><rect
       style="fill:#ff0000;fill-opacity:1;stroke:#000000;stroke-width:0.539999;stroke-opacity:1"
       id="rect5"
       width="7.5045466"
       height="2.7719536"
       x="146.0753"
       y="67.158775"
       ry="0.81130308" /><rect
       style="fill:#ff0000;fill-opacity:1;stroke:#000000;stroke-width:0.539999;stroke-opacity:1"
       id="rect6"
       width="7.5045466"
       height="2.7719536"
       x="154.47026"
       y="67.158775"
       ry="0.81130308" /><rect
       style="fill:#ff0000;fill-opacity:1;stroke:#000000;stroke-width:0.380393;stroke-opacity:1"
       id="rect9"
       width="3.5211904"
       height="2.93156"
       x="145.9955"
       y="70.731316"
       ry="0.85801721" /><rect
       style="fill:#ff0000;fill-opacity:1;stroke:#000000;stroke-width:0.539999;stroke-opacity:1"
       id="rect13"
       width="7.5045466"
       height="2.7719536"
       x="150.3273"
       y="70.811119"
       ry="0.81130308" /><rect
       style="fill:#ff0000;fill-opacity:1;stroke:#000000;stroke-width:0.380393;stroke-opacity:1"
       id="rect14"
       width="3.5211904"
       height="2.93156"
       x="158.53342"
       y="70.731316"
       ry="0.85801721" /><rect
       style="fill:#ff0000;fill-opacity:1;stroke:#000000;stroke-width:0.539999;stroke-opacity:1"
       id="rect16"
       width="7.5045466"
       height="2.7719536"
       x="146.0753"
       y="74.408958"
       ry="0.81130308" /><rect
       style="fill:#ff0000;fill-opacity:1;stroke:#000000;stroke-width:0.539999;stroke-opacity:1"
       id="rect17"
       width="7.5045466"
       height="2.7719536"
       x="154.47026"
       y="74.408958"
       ry="0.81130308" /><rect
       style="fill:#ff0000;fill-opacity:1;stroke:#000000;stroke-width:0.380393;stroke-opacity:1"
       id="rect18"
       width="3.5211904"
       height="2.93156"
       x="145.9955"
       y="77.981499"
       ry="0.85801721" /><rect
       style="fill:#ff0000;fill-opacity:1;stroke:#000000;stroke-width:0.539999;stroke-opacity:1"
       id="rect19"
       width="7.5045466"
       height="2.7719536"
       x="150.3273"
       y="78.061302"
       ry="0.81130308" /><rect
       style="fill:#ff0000;fill-opacity:1;stroke:#000000;stroke-width:0.380393;stroke-opacity:1"
       id="rect20"
       width="3.5211904"
       height="2.93156"
       x="158.53342"
       y="77.981499"
       ry="0.85801721" /><rect
       style="fill:#666666;fill-opacity:1;stroke:#000000;stroke-width:0.539999;stroke-opacity:1"
       id="rect21"
       width="7.5045466"
       height="2.7719536"
       x="92.722839"
       y="67.158775"
       ry="0.81130308" /><rect
       style="fill:#666666;fill-opacity:1;stroke:#000000;stroke-width:0.539999;stroke-opacity:1"
       id="rect22"
       width="7.5045466"
       height="2.7719536"
       x="101.1178"
       y="67.158775"
       ry="0.81130308" /><rect
       style="fill:#666666;fill-opacity:1;stroke:#000000;stroke-width:0.380393;stroke-opacity:1"
       id="rect23"
       width="3.5211904"
       height="2.93156"
       x="92.643036"
       y="70.731316"
       ry="0.85801721" /><rect
       style="fill:#666666;fill-opacity:1;stroke:#000000;stroke-width:0.380393;stroke-opacity:1"
       id="rect25"
       width="3.5211904"
       height="2.93156"
       x="105.18095"
       y="70.731316"
       ry="0.85801721" /><rect
       style="fill:#666666;fill-opacity:1;stroke:#000000;stroke-width:0.384679;stroke-opacity:1"
       id="rect26"
       width="3.6062655"
       height="2.9272738"
       x="92.64518"
       y="74.331299"
       ry="0.85676265" /><rect
       style="fill:#666666;fill-opacity:1;stroke:#000000;stroke-width:0.382255;stroke-opacity:1"
       id="rect27"
       width="3.5580192"
       height="2.9296975"
       x="105.1432"
       y="74.330086"
       ry="0.857472" /><rect
       style="fill:#666666;fill-opacity:1;stroke:#000000;stroke-width:0.380393;stroke-opacity:1"
       id="rect28"
       width="3.5211904"
       height="2.93156"
       x="92.643036"
       y="77.981499"
       ry="0.85801721" /><rect
       style="fill:#666666;fill-opacity:1;stroke:#000000;stroke-width:0.539999;stroke-opacity:1"
       id="rect29"
       width="7.5045466"
       height="2.7719536"
       x="96.974838"
       y="78.061302"
       ry="0.81130308" /><rect
       style="fill:#666666;fill-opacity:1;stroke:#000000;stroke-width:0.380393;stroke-opacity:1"
       id="rect30"
       width="3.5211904"
       height="2.93156"
       x="105.18095"
       y="77.981499"
       ry="0.85801721" /><rect
       style="fill:#7d7d7d;fill-opacity:1;stroke:none;stroke-width:0.539999;stroke-opacity:1"
       id="rect31"
       width="6.6006608"
       height="2.1574521"
       x="90.715836"
       y="72.903687"
       ry="0.81130308" /></g></svg>
