<?xml version="1.0" encoding="UTF-8" standalone="no"?>
<!-- Created with Inkscape (http://www.inkscape.org/) -->

<svg
   width="250mm"
   height="150mm"
   viewBox="0 0 250 150"
   version="1.1"
   id="svg1"
   xml:space="preserve"
   sodipodi:docname="webrtc_experiment.svg"
   inkscape:version="1.3 (0e150ed, 2023-07-21)"
   inkscape:export-filename="webrtc_peer_tree.png"
   inkscape:export-xdpi="101.6"
   inkscape:export-ydpi="101.6"
   xmlns:inkscape="http://www.inkscape.org/namespaces/inkscape"
   xmlns:sodipodi="http://sodipodi.sourceforge.net/DTD/sodipodi-0.dtd"
   xmlns="http://www.w3.org/2000/svg"
   xmlns:svg="http://www.w3.org/2000/svg"><sodipodi:namedview
     id="namedview1"
     pagecolor="#ffffff"
     bordercolor="#000000"
     borderopacity="0.25"
     inkscape:showpageshadow="2"
     inkscape:pageopacity="0.0"
     inkscape:pagecheckerboard="0"
     inkscape:deskcolor="#d1d1d1"
     inkscape:document-units="mm"
     inkscape:zoom="0.56635682"
     inkscape:cx="521.75588"
     inkscape:cy="408.75292"
     inkscape:window-width="1472"
     inkscape:window-height="826"
     inkscape:window-x="0"
     inkscape:window-y="37"
     inkscape:window-maximized="1"
     inkscape:current-layer="layer1" /><defs
     id="defs1"><linearGradient
       id="swatch7"
       inkscape:swatch="solid"><stop
         style="stop-color:#000000;stop-opacity:1;"
         offset="0"
         id="stop7" /></linearGradient><inkscape:path-effect
       effect="fillet_chamfer"
       id="path-effect7"
       is_visible="true"
       lpeversion="1"
       nodesatellites_param="F,0,0,1,0,0,0,1 @ F,0,0,1,0,0,0,1 @ F,0,0,1,0,0,0,1 @ F,0,0,1,0,0,0,1 @ F,0,0,1,0,0,0,1 @ F,0,0,1,0,0,0,1 @ F,0,0,1,0,0,0,1 @ F,0,0,1,0,8.3679857,0,1 @ F,0,0,1,0,0,0,1 @ F,0,1,1,0,8.3679857,0,1 @ F,0,0,1,0,0,0,1 @ F,0,0,1,0,0,0,1 @ F,0,0,1,0,0,0,1 @ F,0,0,1,0,0,0,1 @ F,0,0,1,0,0,0,1 @ F,0,0,1,0,0,0,1 @ F,0,0,1,0,0,0,1"
       radius="0"
       unit="px"
       method="auto"
       mode="F"
       chamfer_steps="1"
       flexible="false"
       use_knot_distance="true"
       apply_no_radius="true"
       apply_with_radius="true"
       only_selected="false"
       hide_knots="false" /><marker
       style="overflow:visible"
       id="DartArrow"
       refX="0"
       refY="0"
       orient="auto-start-reverse"
       inkscape:stockid="Dart arrow"
       markerWidth="1"
       markerHeight="1"
       viewBox="0 0 1 1"
       inkscape:isstock="true"
       inkscape:collect="always"
       preserveAspectRatio="xMidYMid"><path
         style="fill:context-stroke;fill-rule:evenodd;stroke:none"
         d="M 0,0 5,-5 -12.5,0 5,5 Z"
         transform="scale(-0.5)"
         id="path6" /></marker></defs><g
     inkscape:label="Layer 1"
     inkscape:groupmode="layer"
     id="layer1"><rect
       style="fill:#000000;stroke-width:0.172082"
       id="rect8"
       width="36.644093"
       height="20.992096"
       x="104.8036"
       y="10.737302"
       ry="2.3140697" /><rect
       style="fill:#ffffff;stroke-width:0.152115"
       id="rect10"
       width="32.392017"
       height="18.556231"
       x="106.92964"
       y="11.955235"
       ry="2.0455518" /><rect
       style="fill:#000000;stroke-width:0.172082"
       id="rect11"
       width="15.836142"
       height="28.726027"
       x="131.06764"
       y="16.505125"
       ry="3.1666214" /><rect
       style="fill:#ffffff;stroke-width:0.149531"
       id="rect12"
       width="13.400278"
       height="25.633045"
       x="132.28558"
       y="18.051622"
       ry="2.825666" /><path
       style="fill:#ffffff;stroke:#000000;stroke-width:2.1397;stroke-dasharray:none;stroke-opacity:1;marker-end:url(#DartArrow)"
       d="M 105.82957,38.701426 65.244332,70.210553"
       id="path12"
       sodipodi:nodetypes="cc" /><path
       style="fill:#ffffff;stroke:#000000;stroke-width:2.1397;stroke-dasharray:none;stroke-opacity:1;marker-end:url(#DartArrow)"
       d="m 140.76359,48.29116 9.07589,27.05675"
       id="path13"
       sodipodi:nodetypes="cc" /><path
       style="fill:#ffffff;stroke:#000000;stroke-width:2.1397;stroke-dasharray:none;stroke-opacity:1;marker-end:url(#DartArrow)"
       d="M 118.67944,45.630432 107.3635,75.502364"
       id="path14"
       sodipodi:nodetypes="cc" /><path
       style="fill:#ffffff;stroke:#000000;stroke-width:2.1397;stroke-dasharray:none;stroke-opacity:1;marker-end:url(#DartArrow)"
       d="m 152.52095,42.748009 31.33122,27.026059"
       id="path15"
       sodipodi:nodetypes="cc" /><rect
       style="fill:#000000;stroke-width:0.172082"
       id="rect15"
       width="36.644093"
       height="20.992096"
       x="21.920904"
       y="81.632835"
       ry="2.3140697" /><rect
       style="fill:#ffffff;stroke-width:0.152115"
       id="rect16"
       width="32.392017"
       height="18.556231"
       x="24.046942"
       y="82.850769"
       ry="2.0455518" /><rect
       style="fill:#000000;stroke-width:0.172082"
       id="rect17"
       width="15.836142"
       height="28.726027"
       x="48.184944"
       y="87.400658"
       ry="3.1666214" /><rect
       style="fill:#ffffff;stroke-width:0.149531"
       id="rect18"
       width="13.400278"
       height="25.633045"
       x="49.40287"
       y="88.947159"
       ry="2.825666" /><rect
       style="fill:#000000;stroke-width:0.172082"
       id="rect19"
       width="36.644093"
       height="20.992096"
       x="81.856743"
       y="90.53759"
       ry="2.3140697" /><rect
       style="fill:#ffffff;stroke-width:0.152115"
       id="rect20"
       width="32.392017"
       height="18.556231"
       x="83.98278"
       y="91.755524"
       ry="2.0455518" /><rect
       style="fill:#000000;stroke-width:0.172082"
       id="rect21"
       width="15.836142"
       height="28.726027"
       x="108.12079"
       y="96.305412"
       ry="3.1666214" /><rect
       style="fill:#ffffff;stroke-width:0.149531"
       id="rect22"
       width="13.400278"
       height="25.633045"
       x="109.33871"
       y="97.851906"
       ry="2.825666" /><rect
       style="fill:#000000;stroke-width:0.172082"
       id="rect1"
       width="36.644093"
       height="20.992096"
       x="188.71378"
       y="81.632835"
       ry="2.3140697" /><rect
       style="fill:#ffffff;stroke-width:0.152115"
       id="rect2"
       width="32.392017"
       height="18.556231"
       x="190.83981"
       y="82.850769"
       ry="2.0455518" /><rect
       style="fill:#000000;stroke-width:0.172082"
       id="rect3"
       width="15.836142"
       height="28.726027"
       x="214.97781"
       y="87.400658"
       ry="3.1666214" /><rect
       style="fill:#ffffff;stroke-width:0.149531"
       id="rect4"
       width="13.400278"
       height="25.633045"
       x="216.19574"
       y="88.947159"
       ry="2.825666" /><rect
       style="fill:#000000;stroke-width:0.172082"
       id="rect9"
       width="36.644093"
       height="20.992096"
       x="135.97025"
       y="90.53759"
       ry="2.3140697" /><rect
       style="fill:#ffffff;stroke-width:0.152115"
       id="rect13"
       width="32.392017"
       height="18.556231"
       x="138.09628"
       y="91.755524"
       ry="2.0455518" /><rect
       style="fill:#000000;stroke-width:0.172082"
       id="rect14"
       width="15.836142"
       height="28.726027"
       x="162.23428"
       y="96.305412"
       ry="3.1666214" /><rect
       style="fill:#ffffff;stroke-width:0.149531"
       id="rect23"
       width="13.400278"
       height="25.633045"
       x="163.45221"
       y="97.851906"
       ry="2.825666" /><path
       d="m 23.727824,18.82496 c 0,-1.529536 1.25144,-2.780973 2.78098,-2.780973 h 22.24778 c 1.53587,0 2.78097,1.245083 2.78097,2.780973 v 2.780969 c 0,1.53589 -1.2451,2.780974 -2.78097,2.780974 h -22.24778 c -1.53589,0 -2.78098,-1.245084 -2.78098,-2.780974 z m 0,9.733401 c 0,-1.529537 1.25144,-2.780973 2.78098,-2.780973 h 22.24778 c 1.53587,0 2.78097,1.245083 2.78097,2.780973 v 2.780973 c 0,1.535886 -1.2451,2.780969 -2.78097,2.780969 h -22.24778 c -1.53589,0 -2.78098,-1.245083 -2.78098,-2.780969 z m 0,9.7334 c 0,-1.529531 1.25144,-2.780968 2.78098,-2.780968 h 22.24778 c 1.53587,0 2.78097,1.245083 2.78097,2.780968 v 2.780974 c 0,1.535885 -1.2451,2.780973 -2.78097,2.780973 h -22.24778 c -1.53589,0 -2.78098,-1.245088 -2.78098,-2.780973 z M 40.413654,18.82496 c -0.65547,0.655478 -0.65547,2.125486 0,2.780969 0.65549,0.655483 2.1255,0.655483 2.78098,0 0.65548,-0.655483 0.65548,-2.125491 0,-2.780969 -0.65548,-0.655482 -2.12549,-0.655482 -2.78098,0 z m 5.56196,0 c -0.65549,0.655478 -0.65549,2.125486 0,2.780969 0.65547,0.655483 2.12548,0.655483 2.78097,0 0.65548,-0.655483 0.65548,-2.125491 0,-2.780969 -0.65549,-0.655482 -2.1255,-0.655482 -2.78097,0 z m -5.56196,9.733401 c -0.65547,0.655482 -0.65547,2.125491 0,2.780973 0.65549,0.655478 2.1255,0.655478 2.78098,0 0.65548,-0.655482 0.65548,-2.125491 0,-2.780973 -0.65548,-0.655483 -2.12549,-0.655483 -2.78098,0 z m 5.56196,0 c -0.65549,0.655482 -0.65549,2.125491 0,2.780973 0.65547,0.655478 2.12548,0.655478 2.78097,0 0.65548,-0.655482 0.65548,-2.125491 0,-2.780973 -0.65549,-0.655483 -2.1255,-0.655483 -2.78097,0 z m -5.56196,9.7334 c -0.65547,0.655483 -0.65547,2.125492 0,2.780974 0.65549,0.655482 2.1255,0.655482 2.78098,0 0.65548,-0.655482 0.65548,-2.125491 0,-2.780974 -0.65548,-0.655483 -2.12549,-0.655483 -2.78098,0 z m 5.56196,0 c -0.65549,0.655483 -0.65549,2.125492 0,2.780974 0.65547,0.655482 2.12548,0.655482 2.78097,0 0.65548,-0.655482 0.65548,-2.125491 0,-2.780974 -0.65549,-0.655483 -2.1255,-0.655483 -2.78097,0 z"
       id="path1"
       sodipodi:nodetypes="sssssssssssssssssssssssssssaaaaaaaaaaaaaaaaaaaaaaaaaaaaaa"
       style="stroke-width:1.39048" /><circle
       style="fill:#ffffff;stroke-width:0.248557"
       id="path2"
       cx="51.23988"
       cy="43.676708"
       r="12.110147" /><path
       d="m 58.274734,45.148014 c 0.27745,0 0.53594,-0.224992 0.57371,-0.500051 0,0 0.053,-0.386614 0.053,-0.846384 0,-0.459771 -0.053,-0.846385 -0.053,-0.846385 -0.0381,-0.275185 -0.29626,-0.500177 -0.57371,-0.500177 h -1.43465 c -0.27781,0 -0.56618,-0.177056 -0.64071,-0.39339 -0.0745,-0.216333 -0.17744,-0.910381 0.019,-1.106637 l 1.01391,-1.01403 c 0.19625,-0.196382 0.21156,-0.531547 0.0338,-0.744994 l -1.19296,-1.193346 c -0.21345,-0.177936 -0.54849,-0.162878 -0.74513,0.03363 l -1.0139,1.014031 c -0.19626,0.196506 -0.52364,0.275561 -0.72692,0.175927 -0.20329,-0.09963 -0.77336,-0.519877 -0.77336,-0.797572 v -1.43465 c 0,-0.277694 -0.22511,-0.535939 -0.50005,-0.573709 0,0 -0.38661,-0.0532 -0.84638,-0.0532 -0.45977,0 -0.84639,0.0532 -0.84639,0.0532 -0.27519,0.03777 -0.50042,0.296015 -0.50042,0.573709 v 1.43465 c 0,0.277695 -0.17694,0.566055 -0.3934,0.640718 -0.21646,0.07466 -0.91038,0.177433 -1.10676,-0.01895 l -1.01403,-1.014031 c -0.19638,-0.19638 -0.53155,-0.211564 -0.74487,-0.03375 l -1.19322,1.19322 c -0.17793,0.213447 -0.16287,0.548487 0.0336,0.744994 l 1.01391,1.014031 c 0.19638,0.196381 0.27569,0.523516 0.17593,0.726799 -0.0998,0.203283 -0.51988,0.773353 -0.79757,0.773353 h -1.4344 c -0.27769,0 -0.53594,0.225117 -0.57384,0.500177 0,0 -0.0532,0.386613 -0.0532,0.846259 0,0.459896 0.0532,0.846259 0.0532,0.846259 0.0378,0.27531 0.29602,0.500302 0.57384,0.500302 h 1.43465 c 0.27769,0 0.56605,0.176806 0.64059,0.39339 0.0747,0.216459 0.17743,0.910255 -0.0191,1.106511 l -1.01391,1.01403 c -0.19638,0.196382 -0.21156,0.531548 -0.0336,0.74512 l 1.19309,1.193221 c 0.21345,0.17781 0.54836,0.163002 0.74487,-0.03375 l 1.01403,-1.013905 c 0.19638,-0.196256 0.52351,-0.275436 0.72692,-0.175802 0.20341,0.09963 0.77323,0.519877 0.77323,0.797447 v 1.43465 c 0,0.277568 0.22512,0.535813 0.50043,0.573458 0,0 0.38649,0.0532 0.84639,0.0532 0.45989,0 0.84638,-0.0532 0.84638,-0.0532 0.27518,-0.03777 0.50005,-0.29589 0.50005,-0.573458 v -1.43465 c 0,-0.277695 0.17706,-0.566181 0.39352,-0.640718 0.21658,-0.07466 0.9105,-0.177308 1.10676,0.01895 l 1.0139,1.01403 c 0.19638,0.196131 0.53155,0.211565 0.74512,0.03363 l 1.19297,-1.192844 c 0.17781,-0.213446 0.163,-0.548361 -0.0338,-0.745119 l -1.0139,-1.013905 c -0.19638,-0.196256 -0.27569,-0.523516 -0.1758,-0.726924 0.0996,-0.203283 0.51987,-0.773354 0.79744,-0.773354 z m -6.80759,1.374795 c -1.50291,0 -2.72123,-1.218067 -2.72123,-2.721356 0,-1.502788 1.21832,-2.72123 2.72123,-2.72123 1.50292,0 2.72136,1.218317 2.72136,2.72123 0,1.502913 -1.21844,2.721356 -2.72136,2.721356 z"
       fill="#010101"
       id="path1-3"
       style="stroke-width:0.125483" /><path
       id="path3"
       style="fill:none;fill-opacity:1;stroke:#00ff00;stroke-width:3;stroke-dasharray:none;stroke-opacity:1"
       inkscape:transform-center-x="2.6203628e-06"
       inkscape:transform-center-y="-5.3829907"
       d="m 202.90359,-3.9429759 c -0.44946,0 -0.81132,0.3618585 -0.81132,0.81132 v 1.291394 c 0,0.4494615 0.36186,0.81132 0.81132,0.81132 h 0.31213 V 16.907431 l -4.54805,7.877555 -5.1395,8.901977 a 4.8312855,4.8312855 59.999863 0 0 4.18403,7.246908 h 10.27894 10.27945 a 4.8312855,4.8312855 120.00014 0 0 4.18403,-7.246908 l -5.1395,-8.901977 -4.54856,-7.878072 V -1.0289419 h 0.31212 c 0.44946,0 0.81132,-0.3618585 0.81132,-0.81132 v -1.291394 c 0,-0.4494615 -0.36186,-0.81132 -0.81132,-0.81132 z"
       transform="translate(11.157821,16.865024)"
       inkscape:original-d="m 202.90359,-3.9429759 c -0.44946,0 -0.81132,0.3618585 -0.81132,0.81132 v 1.291394 c 0,0.4494615 0.36186,0.81132 0.81132,0.81132 h 0.31213 V 16.907431 l -4.54805,7.877555 -9.32346,16.148885 h 18.64693 18.64744 l -9.32346,-16.148885 -4.54856,-7.878072 V -1.0289419 h 0.31212 c 0.44946,0 0.81132,-0.3618585 0.81132,-0.81132 v -1.291394 c 0,-0.4494615 -0.36186,-0.81132 -0.81132,-0.81132 z"
       inkscape:path-effect="#path-effect7" /><circle
       style="fill:none;fill-opacity:1;stroke:#00ff00;stroke-width:3;stroke-dasharray:none;stroke-opacity:1"
       id="path9"
       cx="223.30974"
       cy="45.799492"
       r="0.52022803" /><circle
       style="fill:none;fill-opacity:1;stroke:#00ff00;stroke-width:3;stroke-dasharray:none;stroke-opacity:1"
       id="path10"
       cx="215.7014"
       cy="49.636173"
       r="1.4956555" /><circle
       style="fill:none;fill-opacity:1;stroke:#00ff00;stroke-width:3;stroke-dasharray:none;stroke-opacity:1"
       id="path11"
       cx="217.78232"
       cy="40.14201"
       r="0.84537059" /><path
       style="fill:#ff0000;stroke:#ff0000;stroke-width:2.1397;stroke-dasharray:none;stroke-opacity:1;marker-end:url(#DartArrow)"
       d="M 39.484598,78.974653 39.641924,59.555575"
       id="path16"
       sodipodi:nodetypes="cc" /><path
       style="fill:#ff0000;stroke:#ff0000;stroke-width:2.1397;stroke-dasharray:none;stroke-opacity:1;marker-end:url(#DartArrow)"
       d="M 93.322986,87.705202 68.016209,60.28312"
       id="path17"
       sodipodi:nodetypes="cc" /><path
       style="fill:#ff0000;stroke:#ff0000;stroke-width:2.1397;stroke-dasharray:none;stroke-opacity:1;marker-end:url(#DartArrow)"
       d="M 137.70328,86.492626 72.866514,52.765147"
       id="path18"
       sodipodi:nodetypes="cc" /><path
       style="fill:#ff0000;stroke:#ff0000;stroke-width:2.1397;stroke-dasharray:none;stroke-opacity:1;marker-end:url(#DartArrow)"
       d="M 183.78118,85.522565 76.504243,47.429811"
       id="path19"
       sodipodi:nodetypes="cc" /><path
       style="fill:#ff0000;stroke:#0000ff;stroke-width:2.1397;stroke-dasharray:none;stroke-opacity:1;marker-end:url(#DartArrow)"
       d="M 57.329544,30.784596 89.322628,25.603912"
       id="path20"
       sodipodi:nodetypes="cc" /></g></svg>
